<?xml version="1.0" standalone="no"?>
<!DOCTYPE svg PUBLIC "-//W3C//DTD SVG 20010904//EN"
 "http://www.w3.org/TR/2001/REC-SVG-20010904/DTD/svg10.dtd">
<svg version="1.0" xmlns="http://www.w3.org/2000/svg"
 width="816.000000pt" height="816.000000pt" viewBox="0 0 816.000000 816.000000"
 preserveAspectRatio="xMidYMid meet">
<metadata>
Created by potrace 1.14, written by Peter Selinger 2001-2017
</metadata>
<g transform="translate(0.000000,816.000000) scale(0.100000,-0.100000)"
fill="#000000" stroke="none">
<path d="M2367 7383 c-14 -27 -31 -47 -37 -45 -6 1 -9 -2 -5 -8 6 -9 -65 -142
-85 -160 -3 -3 -11 -16 -17 -30 -7 -14 -30 -56 -52 -95 -22 -38 -48 -85 -57
-102 -9 -18 -24 -33 -33 -33 -10 0 -12 -3 -5 -8 8 -5 -5 -34 -37 -87 -27 -44
-49 -86 -49 -92 0 -7 -4 -13 -8 -13 -4 0 -18 -20 -30 -46 -14 -28 -27 -42 -34
-38 -6 4 -8 3 -4 -4 3 -6 -3 -26 -14 -44 -10 -18 -26 -46 -35 -63 -8 -16 -25
-46 -36 -65 -12 -19 -33 -55 -47 -80 -13 -25 -29 -50 -36 -55 -6 -6 -12 -17
-14 -25 -2 -8 -8 -18 -14 -21 -5 -3 -9 -8 -8 -10 5 -11 -35 -77 -43 -72 -6 3
-7 1 -3 -6 9 -13 -12 -43 -24 -36 -5 3 -6 -4 -3 -15 3 -11 0 -20 -6 -20 -6 0
-11 -6 -11 -14 0 -8 -7 -22 -16 -30 -8 -9 -13 -16 -9 -16 3 0 -3 -13 -14 -29
-12 -16 -21 -34 -21 -39 0 -6 -3 -12 -7 -15 -5 -2 -3 -2 4 -1 7 2 15 -1 18 -7
4 -6 13 -6 23 0 9 5 26 5 39 0 13 -5 23 -5 23 -1 0 4 20 7 44 7 37 0 42 -2 33
-14 -10 -12 -9 -12 11 -2 12 6 22 8 22 4 0 -4 5 -1 10 7 8 12 10 12 10 1 0
-10 3 -11 14 -2 11 10 18 7 31 -11 11 -14 15 -17 12 -6 -4 10 -2 20 3 23 4 3
10 0 12 -7 4 -10 10 -10 32 0 20 9 25 9 20 0 -7 -11 -5 -11 45 10 10 4 13 1 8
-11 -3 -9 -2 -19 4 -22 5 -4 6 -11 3 -17 -10 -15 -27 19 -18 35 4 6 -2 4 -14
-7 -18 -15 -24 -16 -37 -6 -8 7 -15 8 -15 2 0 -13 26 -23 45 -16 8 4 15 1 15
-5 0 -6 -4 -11 -10 -11 -5 0 -10 -5 -10 -11 0 -8 5 -8 15 1 17 15 19 7 5 -21
-21 -39 -2 -17 29 34 18 28 27 46 20 40 -7 -7 -18 -13 -23 -13 -6 0 -2 7 8 15
12 9 23 11 31 5 12 -10 33 -9 53 3 17 11 15 1 -5 -22 -12 -15 -21 -18 -35 -10
-17 9 -22 5 -19 -13 0 -5 -3 -8 -7 -8 -5 0 -14 -11 -20 -25 -10 -21 -9 -27 3
-31 8 -4 12 -11 8 -17 -3 -6 -1 -7 5 -3 17 10 15 24 -4 28 -14 3 -13 7 6 28
15 18 20 20 16 7 -4 -12 5 -27 25 -45 16 -15 31 -35 33 -44 1 -9 10 -26 20
-37 11 -12 14 -21 7 -26 -6 -3 -11 -1 -11 6 0 7 -3 9 -7 5 -5 -4 -1 -13 8 -19
9 -7 19 -32 23 -57 4 -31 3 -40 -4 -30 -6 9 -10 10 -10 3 0 -7 8 -17 18 -22
13 -8 14 -10 2 -11 -10 0 -11 -3 -3 -8 6 -4 14 -23 16 -42 3 -19 6 -35 7 -35
1 0 3 -11 6 -25 2 -14 7 -32 11 -40 3 -8 7 -22 7 -30 1 -8 4 -20 8 -26 4 -6
10 -26 13 -44 3 -19 10 -39 15 -45 6 -7 5 -16 -3 -25 -8 -8 -8 -11 -1 -7 19
11 25 -22 6 -33 -16 -11 -16 -11 1 -6 11 4 20 0 23 -12 3 -9 10 -25 16 -36 7
-14 6 -21 -4 -27 -10 -7 -10 -9 2 -9 19 0 51 -75 38 -88 -6 -6 -5 -12 3 -17 8
-5 10 -4 5 3 -4 7 -2 12 3 12 10 0 16 -21 12 -42 0 -5 5 -8 11 -8 9 0 8 -4 -2
-10 -13 -8 -12 -10 3 -10 9 0 17 -6 17 -12 0 -7 9 -24 20 -38 15 -19 16 -28 7
-39 -10 -12 -9 -13 2 -6 11 6 13 4 8 -8 -4 -10 -2 -14 6 -11 7 2 17 -6 23 -18
34 -69 73 -136 77 -132 2 3 7 -2 11 -11 4 -11 2 -14 -7 -10 -6 4 -1 -3 13 -14
21 -18 23 -22 10 -31 -13 -9 -12 -10 4 -8 10 2 21 -3 23 -10 3 -8 -2 -10 -14
-6 -14 5 -15 4 -4 -4 8 -6 20 -8 28 -5 7 3 13 0 13 -6 0 -13 9 -25 52 -70 22
-24 25 -31 14 -40 -7 -6 -22 -9 -32 -5 -18 5 -18 5 -1 -6 12 -8 22 -8 30 -2 8
7 18 6 31 -4 11 -8 17 -14 14 -14 -4 0 14 -21 39 -47 72 -77 78 -84 75 -95 -2
-6 4 -8 12 -5 21 8 39 -16 23 -33 -9 -10 -9 -11 1 -6 15 9 54 -2 47 -14 -3 -5
3 -8 14 -7 11 0 18 4 15 8 -4 8 115 95 125 92 3 -1 15 6 26 16 11 10 30 22 43
26 12 3 22 10 22 15 0 5 7 6 17 3 11 -4 14 -3 9 6 -4 6 -4 10 1 9 14 -4 53 13
53 23 0 6 4 8 10 4 5 -3 7 -12 4 -20 -4 -8 -11 -12 -17 -8 -6 4 -7 1 -2 -7 11
-18 36 15 28 38 -3 13 -1 12 12 -3 16 -20 17 -20 13 0 -2 11 2 20 7 20 6 1 35
10 65 22 48 18 85 27 190 49 24 5 24 6 -13 28 -20 13 -34 26 -29 31 4 4 2 5
-4 2 -6 -4 -25 6 -42 21 -16 15 -46 40 -66 56 -20 16 -33 33 -29 40 3 6 3 8
-2 4 -8 -8 -89 70 -151 147 -45 56 -124 170 -124 180 0 4 -9 19 -20 35 -11 15
-17 30 -13 34 3 3 1 6 -6 6 -7 0 -9 5 -6 10 3 6 1 10 -5 10 -6 0 -8 5 -5 10 3
6 1 10 -5 10 -7 0 -10 7 -6 15 3 8 2 15 -2 15 -8 0 -52 92 -52 109 0 6 -4 19
-9 29 -35 68 -40 90 -25 102 16 15 19 30 3 30 -5 0 -8 -4 -4 -9 3 -5 2 -12 -3
-15 -4 -2 -13 9 -19 25 -10 26 -10 30 3 25 7 -3 14 -1 14 4 0 6 -7 10 -16 10
-10 0 -14 6 -10 15 3 8 1 15 -5 15 -6 0 -7 5 -4 10 4 6 12 8 18 4 7 -3 4 1 -5
9 -20 16 -24 41 -5 32 6 -4 4 0 -5 8 -21 17 -25 44 -5 31 7 -5 5 -2 -5 8 -13
12 -15 18 -6 21 10 4 10 6 1 6 -7 1 -13 6 -13 12 0 5 5 7 10 4 6 -3 10 -2 10
4 0 5 -4 11 -10 13 -5 2 -11 32 -13 69 -2 36 -7 70 -11 77 -4 7 -2 12 4 12 7
0 8 6 1 18 -13 25 1 48 18 28 9 -11 9 -15 -1 -19 -10 -4 -8 -9 5 -17 9 -6 17
-16 17 -22 0 -6 -7 -5 -17 3 -16 13 -17 12 -5 -3 10 -13 10 -17 0 -21 -7 -2
-11 -7 -8 -10 3 -3 14 1 25 9 16 12 18 18 7 34 -18 30 -14 38 8 12 10 -12 21
-18 24 -13 4 5 1 11 -5 13 -7 2 -13 17 -15 33 -2 26 -1 28 10 13 8 -11 16 -14
23 -7 5 5 19 11 32 14 19 3 21 1 16 -18 -6 -21 -6 -21 9 -3 17 21 87 29 119
14 11 -6 17 -5 17 2 0 6 5 8 10 5 6 -4 7 -12 3 -18 -4 -7 0 -6 10 2 9 7 17 10
17 6 0 -4 7 -2 15 5 11 9 15 9 15 1 0 -8 6 -9 18 -3 9 5 31 7 49 5 31 -4 32
-4 20 27 -6 16 -15 30 -19 30 -4 0 -8 7 -8 15 0 8 -5 15 -11 15 -5 0 -7 5 -4
10 3 6 2 10 -2 10 -5 0 -22 26 -38 58 -17 31 -32 59 -36 62 -6 6 -21 43 -19
48 1 2 -5 9 -13 15 -8 7 -31 44 -52 82 -21 39 -42 75 -47 82 -5 7 -6 18 -2 24
4 7 3 9 -3 6 -13 -8 -46 50 -37 65 4 6 3 8 -3 5 -8 -5 -64 80 -103 158 -8 17
-18 32 -22 33 -5 2 -6 8 -2 13 3 5 1 9 -3 9 -5 0 -17 17 -28 38 -10 20 -24 43
-29 51 -6 7 -11 20 -12 29 -2 8 -8 18 -15 22 -16 11 -49 83 -42 94 4 5 2 6 -4
3 -10 -6 -60 71 -55 86 1 4 -2 7 -8 7 -5 0 -10 5 -10 12 0 6 -6 19 -14 27 -13
15 -52 83 -83 143 -8 15 -19 30 -24 33 -5 4 -7 11 -4 16 4 5 2 9 -2 9 -5 0
-20 22 -34 50 -13 27 -27 50 -31 50 -5 0 -8 7 -8 15 0 28 -18 15 -43 -32z
m483 -1445 c0 -6 -7 -5 -15 2 -8 7 -15 17 -15 22 0 6 7 5 15 -2 8 -7 15 -17
15 -22z m-765 -37 c2 -17 -1 -31 -6 -31 -6 0 -7 5 -3 12 4 6 3 8 -4 4 -6 -3
-23 6 -39 20 l-28 26 29 -17 c21 -13 31 -14 40 -5 8 8 6 9 -9 4 -18 -7 -19 -6
-6 9 17 21 21 18 26 -22z m-26 -30 c11 -11 22 -17 25 -13 3 3 6 -3 6 -14 0
-10 3 -30 7 -44 3 -15 2 -22 -3 -17 -5 5 -10 13 -10 18 -1 5 -2 13 -3 17 0 5
-15 23 -32 40 -17 18 -26 32 -20 32 6 0 20 -9 30 -19z"/>
<path d="M5756 7395 c-9 -19 -21 -35 -27 -35 -6 0 -8 -4 -5 -8 3 -5 -6 -25
-19 -45 -14 -20 -25 -41 -25 -46 0 -6 -5 -11 -11 -11 -5 0 -7 -4 -4 -10 3 -5
2 -10 -3 -10 -6 0 -15 -12 -21 -27 -6 -16 -22 -46 -36 -68 -14 -22 -35 -59
-46 -82 -12 -24 -25 -43 -30 -43 -5 0 -9 -7 -9 -15 0 -8 -4 -15 -10 -15 -6 0
-9 -3 -9 -7 4 -24 -3 -35 -17 -29 -14 5 -15 4 -4 -9 7 -8 8 -15 2 -15 -5 0
-12 -8 -15 -17 -8 -24 -40 -76 -52 -85 -7 -5 -7 -8 0 -8 6 0 2 -7 -8 -14 -10
-8 -18 -17 -18 -20 2 -18 -1 -25 -19 -46 -11 -13 -20 -30 -20 -38 0 -8 -6 -12
-15 -9 -8 4 -17 2 -20 -4 -4 -5 -3 -9 2 -8 23 4 23 -4 1 -33 -14 -18 -28 -43
-32 -55 -4 -13 -12 -23 -17 -23 -5 0 -8 -3 -7 -7 3 -8 -42 -89 -73 -135 -11
-15 -19 -32 -19 -37 0 -6 -7 -14 -16 -19 -9 -5 -15 -11 -13 -13 4 -8 -13 -49
-21 -49 -8 0 -25 -41 -21 -49 2 -2 -2 -7 -7 -10 -5 -3 -22 -28 -36 -56 -50
-92 -79 -140 -88 -146 -5 -3 -10 -10 -10 -15 -1 -18 -10 -34 -17 -29 -9 5 -7
-32 2 -41 4 -4 7 -2 7 4 0 6 9 10 20 9 11 -1 20 -5 20 -10 0 -5 7 -4 15 3 8 7
15 8 15 3 0 -5 7 -10 15 -10 8 0 15 5 15 10 0 5 8 3 17 -4 9 -8 14 -9 10 -3
-7 12 21 12 41 0 6 -4 12 -3 12 3 0 7 8 7 25 1 18 -7 25 -6 25 3 0 6 5 4 11
-6 10 -17 12 -17 29 -2 16 14 19 14 34 -10 12 -18 14 -30 7 -39 -16 -19 -6
-51 16 -49 12 1 19 -5 20 -16 1 -14 -4 -18 -20 -15 -21 4 -21 4 -2 -5 26 -11
36 -5 31 22 -2 15 -10 21 -23 20 -12 -1 -19 5 -20 18 -2 18 0 19 15 7 15 -11
15 -11 5 3 -7 9 -10 18 -7 22 3 3 1 15 -6 26 -13 26 4 29 20 4 11 -17 11 -17
6 -1 -3 10 -1 20 4 23 6 4 10 1 10 -6 0 -8 4 -8 15 1 12 10 15 10 15 0 0 -10
3 -10 15 0 10 8 15 9 15 2 0 -6 6 -10 13 -8 6 1 9 1 6 -1 -4 -2 -5 -13 -2 -23
3 -12 0 -20 -6 -20 -7 0 -9 4 -6 10 4 6 -1 7 -12 4 -15 -5 -15 -4 -3 5 8 5 11
13 7 18 -9 8 -28 -17 -21 -28 2 -4 -2 -10 -8 -13 -7 -3 -2 -3 12 1 22 5 23 4
12 -10 -7 -8 -21 -13 -32 -10 -24 6 -25 12 -5 41 14 20 14 21 0 16 -8 -3 -15
-12 -15 -20 0 -8 -5 -14 -10 -14 -6 0 -6 -7 2 -19 6 -11 18 -17 26 -13 10 3
13 1 8 -6 -4 -7 -2 -12 3 -12 6 0 11 5 11 11 0 8 6 7 18 -2 15 -12 16 -12 5 2
-12 14 -8 29 6 29 9 0 7 -67 -2 -77 -5 -4 -7 -2 -5 6 2 7 -4 16 -12 18 -12 4
-12 3 -2 -5 11 -7 11 -10 -2 -15 -10 -4 -16 -1 -16 8 0 8 -5 15 -10 15 -7 0
-7 -7 0 -20 6 -11 15 -18 20 -15 4 3 15 2 24 -1 11 -4 13 -12 7 -27 -5 -12 -8
-33 -7 -47 1 -14 -5 -31 -14 -38 -8 -8 -10 -11 -3 -8 8 5 11 -2 9 -21 -2 -16
-4 -36 -5 -46 -1 -11 -6 -15 -13 -11 -7 4 -8 3 -4 -5 7 -11 -10 -116 -22 -136
-4 -5 -7 -16 -9 -24 -1 -8 -4 -26 -8 -39 -5 -21 -8 -22 -23 -10 -15 12 -16 11
-4 -4 9 -11 11 -26 6 -40 -4 -13 -6 -25 -5 -27 2 -2 -2 -7 -8 -11 -6 -3 -13
-15 -15 -26 -7 -33 -53 -114 -60 -107 -4 4 -4 0 -1 -9 3 -8 -1 -22 -9 -31 -8
-8 -18 -27 -22 -41 -3 -15 -9 -24 -12 -21 -3 3 -12 -9 -19 -26 -7 -17 -16 -28
-21 -25 -5 3 -9 0 -9 -7 0 -17 -33 -67 -44 -67 -5 0 -9 -5 -9 -11 0 -6 -8 -21
-19 -34 -14 -19 -21 -21 -30 -12 -10 9 -11 8 -6 -5 5 -13 -13 -38 -72 -95 -89
-87 -119 -113 -160 -140 -15 -9 -30 -20 -33 -23 -37 -40 -317 -180 -342 -172
-5 1 -8 -3 -8 -10 0 -6 -2 -9 -6 -6 -3 3 -26 -1 -52 -9 -26 -8 -58 -17 -72
-19 -14 -3 -40 -9 -59 -14 -19 -5 -37 -7 -41 -5 -3 2 -12 0 -20 -5 -8 -5 -22
-4 -33 2 -14 7 -17 7 -13 -1 5 -7 -9 -11 -41 -12 -62 -2 -130 -7 -168 -13 -51
-9 -139 -19 -167 -20 -16 -1 -28 -4 -28 -7 0 -4 -15 -6 -34 -5 -19 1 -32 -2
-30 -6 5 -7 -28 -13 -50 -9 -5 1 -12 -3 -16 -8 -3 -6 -15 -12 -25 -14 -11 -2
-30 -9 -42 -15 -13 -7 -23 -10 -23 -6 0 3 -7 1 -15 -6 -8 -6 -19 -9 -25 -5 -6
4 -9 1 -8 -7 2 -7 -5 -12 -14 -12 -10 1 -18 -1 -18 -5 0 -4 -29 -20 -65 -36
-36 -16 -65 -33 -65 -37 0 -4 -7 -8 -15 -8 -9 0 -27 -7 -40 -16 -13 -9 -30
-12 -36 -8 -8 4 -9 3 -5 -4 7 -11 -101 -80 -116 -74 -5 1 -8 -5 -8 -14 0 -10
-6 -14 -15 -10 -8 3 -14 0 -12 -7 1 -7 -6 -11 -15 -11 -10 1 -16 -1 -13 -5 2
-4 -5 -14 -16 -22 -12 -8 -29 -21 -39 -29 -119 -99 -189 -166 -260 -249 -25
-29 -50 -58 -56 -65 -6 -6 -36 -48 -67 -91 -31 -44 -61 -85 -65 -91 -16 -18
-36 -59 -34 -66 1 -5 -5 -8 -13 -8 -8 0 -14 -3 -13 -7 7 -27 -38 -96 -55 -86
-6 3 -7 1 -3 -6 10 -16 -3 -53 -16 -45 -6 4 -8 2 -4 -4 6 -11 -31 -101 -47
-113 -5 -3 -8 -9 -8 -13 2 -11 -3 -24 -19 -61 -7 -16 -14 -33 -15 -37 -2 -5
-4 -10 -5 -13 -1 -3 -3 -8 -4 -12 -3 -12 -27 -86 -33 -103 -4 -8 -5 -18 -5
-22 1 -5 -2 -8 -6 -8 -4 0 -8 -8 -9 -17 -2 -35 -14 -78 -23 -81 -4 -2 -5 -12
-2 -24 3 -13 1 -19 -5 -15 -6 4 -8 -4 -5 -20 3 -15 1 -24 -5 -20 -5 3 -8 -8
-7 -26 1 -19 -4 -36 -14 -45 -10 -7 -11 -11 -4 -7 9 5 11 -2 6 -27 -4 -18 -6
-41 -6 -51 1 -13 -4 -17 -15 -13 -13 5 -14 4 -4 -8 14 -16 11 -47 -4 -58 -6
-5 -5 -8 3 -8 7 0 10 -5 6 -11 -4 -6 -9 -34 -11 -63 -3 -28 -10 -57 -16 -65
-9 -12 -9 -13 1 -7 9 5 11 1 8 -16 -3 -13 -5 -25 -6 -28 -2 -3 -2 -8 -1 -12 0
-5 -2 -8 -7 -9 -4 0 -17 -2 -30 -3 -15 -2 -21 2 -18 10 3 7 0 16 -6 20 -7 4
-8 3 -4 -4 3 -6 -3 -16 -14 -22 -15 -8 -20 -8 -20 1 0 8 -4 8 -15 -1 -9 -8
-15 -8 -15 -2 0 7 -10 8 -27 4 -36 -9 -85 -9 -100 1 -7 5 -13 4 -13 0 0 -5 -9
-9 -20 -9 -11 0 -20 4 -20 9 0 6 -5 6 -12 0 -7 -5 -59 -8 -114 -8 l-102 2 26
-46 c14 -25 35 -61 48 -80 13 -19 21 -38 18 -43 -3 -4 -1 -8 4 -8 8 0 36 -50
33 -58 -1 -1 5 -10 14 -19 9 -8 14 -22 11 -30 -3 -8 -2 -11 3 -8 5 3 12 -4 16
-15 3 -11 11 -20 17 -20 6 0 8 -3 5 -6 -4 -4 2 -19 12 -33 32 -47 36 -58 14
-39 -23 21 -33 23 -33 6 0 -6 3 -9 6 -5 4 3 22 -6 41 -20 23 -18 33 -32 30
-45 -3 -12 0 -18 10 -18 10 0 14 -6 10 -20 -3 -11 -1 -18 4 -15 4 3 20 -16 34
-42 14 -26 31 -56 38 -66 10 -14 9 -20 -3 -28 -13 -9 -13 -10 2 -6 20 7 40
-15 42 -47 0 -13 4 -22 7 -20 11 6 61 -77 55 -92 -3 -7 0 -16 6 -20 7 -4 8 -3
4 4 -4 7 -4 12 -1 12 3 0 11 -13 16 -30 6 -16 16 -30 22 -30 7 0 5 -5 -3 -10
-13 -8 -12 -10 3 -10 9 0 17 -7 17 -15 0 -8 5 -15 10 -15 6 0 10 -9 10 -19 0
-11 6 -21 13 -24 9 -3 9 -7 -1 -20 -11 -13 -10 -15 7 -10 13 3 21 1 21 -7 0
-6 9 -25 21 -41 18 -26 18 -33 -2 -31 -4 1 -4 -9 -1 -21 5 -17 7 -18 10 -5 4
23 32 11 32 -13 0 -10 3 -19 8 -19 15 0 31 -52 22 -71 -6 -10 -10 -24 -10 -31
1 -7 7 0 14 17 l12 30 17 -34 c9 -18 14 -37 11 -42 -3 -5 -1 -8 5 -7 6 2 24
-19 39 -47 15 -27 31 -52 35 -53 4 -2 2 -11 -5 -20 -9 -11 -9 -14 -1 -9 7 5
19 -3 30 -20 9 -15 18 -30 19 -32 6 -7 30 25 54 71 14 27 30 48 36 48 7 0 12
6 11 13 -1 30 4 47 14 47 5 0 7 -6 3 -12 -4 -7 -3 -10 1 -6 5 5 10 19 11 33 1
14 9 32 17 40 9 8 18 20 20 27 4 10 8 9 16 -2 6 -8 11 -10 11 -5 0 6 -4 15
-10 21 -6 6 2 27 23 60 19 28 36 58 40 68 4 10 12 14 18 10 8 -4 9 -3 5 4 -8
13 27 87 46 98 10 6 10 4 0 -8 -10 -13 -10 -18 -1 -24 7 -4 9 -3 5 4 -3 6 4
18 16 28 15 10 17 14 6 11 -10 -4 -20 -2 -23 3 -4 6 2 10 11 10 10 0 14 3 11
6 -3 4 -1 16 5 28 7 11 12 24 13 28 0 3 4 10 9 15 5 4 6 3 2 -4 -3 -6 -2 -14
3 -18 6 -3 8 5 5 19 -2 15 1 26 12 30 8 3 13 10 10 15 -3 5 3 20 14 33 11 14
17 28 13 31 -3 4 2 9 11 13 9 3 13 11 9 17 -4 6 0 8 9 5 11 -5 14 -1 11 16 -3
14 3 28 14 37 17 13 17 13 3 -6 -14 -18 -13 -19 1 -8 9 7 19 9 24 5 4 -4 3 2
-2 13 -6 11 -7 29 -2 40 4 11 8 16 9 10 1 -5 5 0 11 13 6 15 13 21 21 16 10
-6 10 -4 0 8 -10 13 -10 17 3 21 9 4 12 13 8 23 -4 10 -2 15 3 11 6 -3 16 -2
24 4 11 6 11 9 2 9 -9 0 -7 11 7 38 36 66 37 68 58 52 17 -14 17 -14 0 7 -16
18 -16 22 -4 30 8 4 17 17 19 28 2 11 10 19 17 17 7 -1 10 2 7 7 -9 14 5 42
17 34 6 -4 8 0 4 10 -4 10 -1 17 5 17 6 0 9 3 5 6 -3 3 15 40 40 82 25 43 49
87 54 100 5 12 13 22 18 22 5 0 11 11 13 24 4 22 2 23 -39 22 -24 -1 -43 3
-43 9 0 6 -3 7 -8 0 -8 -11 -47 -13 -57 -3 -4 4 -17 3 -30 -2 -14 -5 -26 -5
-34 3 -6 6 -11 7 -11 1 0 -5 -9 -10 -20 -10 -11 0 -20 5 -20 11 0 6 -3 7 -8 0
-4 -5 -15 -11 -25 -12 -13 -1 -17 4 -12 15 5 13 2 12 -15 -3 -12 -11 -20 -13
-20 -6 0 8 -5 9 -19 1 -14 -7 -22 -7 -26 0 -4 7 -11 7 -18 2 -7 -5 -21 -6 -32
-2 -19 7 -19 7 0 18 18 10 18 11 3 12 -10 0 -18 5 -18 11 0 6 7 8 16 5 14 -6
15 -4 4 10 -11 13 -11 17 -1 24 11 6 11 9 0 12 -12 5 -12 9 -1 28 8 12 9 19 3
15 -6 -3 -11 -1 -11 4 0 6 6 11 13 11 8 0 7 4 -3 10 -13 9 -13 10 0 10 13 0
13 1 0 10 -9 6 -10 10 -3 10 7 0 10 12 8 30 -2 17 1 30 7 30 6 0 5 7 -3 17
-13 15 -11 16 16 10 27 -7 28 -6 9 5 -13 8 -20 21 -18 33 10 61 17 84 24 80 4
-3 14 3 21 13 13 15 12 16 -3 4 -10 -8 -19 -9 -22 -3 -4 5 -2 12 3 16 6 3 7
13 4 22 -4 10 -2 14 4 10 13 -8 24 18 17 38 -4 8 -3 23 2 32 4 10 8 21 9 26 2
4 3 8 5 10 2 3 11 40 12 55 1 6 5 12 9 12 4 0 10 16 13 35 4 20 11 33 17 30 5
-4 6 -11 3 -17 -4 -7 -2 -8 4 -4 8 5 9 13 3 24 -10 21 -3 44 11 36 7 -4 8 -2
4 4 -4 6 1 26 11 44 9 18 17 37 18 41 0 5 8 14 18 21 19 15 24 31 5 20 -7 -4
-8 -3 -4 5 4 6 12 8 18 5 7 -5 9 -2 5 8 -3 9 1 24 9 35 14 17 14 17 5 -4 -9
-17 -8 -21 4 -19 8 1 18 6 22 11 4 4 3 5 -3 2 -7 -4 -11 3 -11 19 -1 14 6 28
13 31 8 3 12 8 10 12 -8 12 23 44 45 45 13 1 23 8 25 19 1 9 -2 15 -7 11 -5
-3 -7 -10 -4 -15 7 -10 -8 -12 -18 -2 -4 4 12 25 35 47 24 22 34 34 23 27 -11
-8 -8 -2 7 12 15 14 24 28 20 33 -4 4 -1 4 6 0 7 -4 12 -1 12 8 0 9 5 16 11
16 6 0 8 -7 5 -16 -3 -9 -2 -12 5 -9 6 4 8 14 4 23 -4 11 16 36 66 83 40 37
76 66 81 63 4 -3 11 2 14 11 5 12 9 13 20 4 15 -13 44 4 44 25 0 6 -7 2 -15
-8 -8 -11 -18 -17 -21 -13 -9 9 15 37 31 37 8 0 16 -6 19 -12 4 -7 5 -4 3 7
-3 16 7 27 44 48 26 14 51 23 54 18 2 -5 -2 -12 -11 -15 -13 -5 -14 -9 -4 -21
9 -11 9 -15 1 -15 -6 0 -14 7 -17 15 -4 8 -10 12 -16 9 -5 -3 0 -13 11 -21 26
-17 48 -8 30 13 -10 13 -8 14 14 10 15 -2 30 -7 35 -10 4 -2 14 0 22 6 13 8
12 9 -1 5 -16 -5 -59 17 -59 31 0 4 11 12 25 18 22 11 26 9 43 -20 10 -17 18
-39 16 -49 -1 -9 2 -17 7 -17 11 0 7 28 -10 58 -17 32 -6 40 13 9 15 -22 56
-33 56 -14 0 4 0 12 0 17 0 6 -5 10 -11 10 -8 0 -8 -4 1 -14 9 -12 8 -15 -9
-13 -12 1 -24 9 -27 19 -5 16 -16 22 -36 19 -5 0 -8 3 -8 7 0 9 80 39 93 34 4
-1 7 2 7 7 0 5 12 8 26 5 16 -3 23 -1 19 6 -3 5 1 11 9 11 17 2 35 5 39 9 1 1
11 3 21 5 11 2 30 6 43 10 13 3 23 1 23 -5 0 -6 -4 -8 -10 -5 -9 5 -14 -8 -7
-19 1 -2 -7 -13 -17 -25 -15 -16 -21 -18 -27 -9 -5 8 -8 5 -7 -9 2 -20 3 -20
25 -4 21 15 24 21 22 37 -1 8 22 24 34 24 5 0 6 -4 2 -9 -3 -5 -1 -12 5 -16 5
-3 10 -11 10 -17 0 -7 -6 -6 -15 2 -24 20 -17 3 11 -27 20 -21 24 -23 16 -7
-6 12 -9 24 -5 27 3 4 1 13 -6 20 -8 11 -8 17 1 24 17 14 50 13 45 -1 -2 -6
-13 -9 -23 -8 -15 3 -17 1 -6 -9 10 -11 15 -10 28 3 16 16 11 43 -6 33 -5 -3
-12 0 -16 7 -4 7 -4 10 0 6 4 -3 21 -2 37 2 28 8 42 -3 17 -13 -8 -3 -6 -6 5
-6 9 -1 17 5 17 12 0 6 11 13 25 13 21 2 24 -1 14 -12 -6 -8 -15 -11 -20 -8
-5 3 -6 -2 -3 -11 4 -10 1 -14 -7 -12 -8 2 -11 2 -6 0 4 -3 5 -9 1 -14 -3 -5
-1 -9 5 -9 5 0 12 8 16 19 10 32 44 55 87 58 22 2 47 -2 54 -8 8 -6 14 -9 14
-5 0 3 8 -2 18 -11 11 -10 17 -21 15 -25 -2 -4 4 -5 13 -1 11 4 15 3 10 -5 -4
-6 3 -16 16 -22 21 -10 21 -10 6 3 -10 8 -15 17 -12 20 3 3 -5 11 -18 18 -12
6 -27 18 -31 26 -5 7 -12 11 -18 8 -5 -4 -9 -1 -9 5 0 7 6 10 13 7 6 -2 20 0
29 4 10 6 19 5 24 -2 4 -8 9 -7 15 2 7 12 9 12 9 0 0 -8 -8 -20 -17 -27 -17
-13 -17 -14 1 -7 13 4 17 3 12 -5 -4 -7 -1 -15 8 -18 9 -3 13 -11 9 -17 -4 -6
-1 -7 7 -2 10 6 10 10 -2 19 -9 6 -13 22 -11 35 4 32 9 36 25 24 17 -13 56
-14 64 -2 3 6 -7 7 -25 4 -17 -3 -31 -2 -31 3 0 4 10 9 23 9 24 1 80 10 85 14
1 1 10 2 20 3 9 1 23 5 30 9 17 11 15 -8 -3 -23 -8 -7 -12 -16 -9 -21 3 -5 0
-9 -5 -9 -6 0 -11 -5 -11 -11 0 -8 5 -8 15 1 12 10 18 10 30 0 9 -8 15 -8 15
-2 0 6 -9 13 -19 17 -20 6 -20 7 1 30 25 29 35 26 18 -5 -8 -15 -8 -20 -1 -16
6 4 11 0 12 -11 0 -14 2 -15 6 -3 4 8 15 23 26 33 11 9 16 17 12 17 -5 0 -17
-7 -27 -17 -10 -9 -18 -12 -18 -7 0 18 16 33 40 37 14 3 43 12 63 21 21 8 41
15 45 14 4 -1 17 3 29 10 12 6 29 9 39 5 12 -4 15 -3 10 5 -4 7 -2 12 6 12 7
0 24 6 38 13 46 24 59 27 54 12 -3 -8 -12 -11 -22 -7 -14 5 -15 4 -2 -10 9 -9
18 -12 21 -6 3 5 9 0 12 -12 3 -12 10 -19 15 -16 6 3 13 1 15 -4 4 -7 5 -6 4
0 -2 7 -7 11 -12 10 -12 -2 -26 37 -19 55 4 8 10 12 15 9 5 -3 9 0 9 5 0 6 3
11 8 10 15 -2 52 14 52 23 0 5 10 0 22 -12 12 -11 24 -17 27 -14 3 3 -2 10
-12 16 -14 7 -16 13 -6 24 6 7 15 11 20 8 5 -3 9 0 9 7 0 6 8 9 20 6 11 -3 20
-2 20 2 0 10 80 57 88 51 4 -3 6 -8 5 -12 -2 -5 2 -8 8 -8 6 0 8 9 3 22 -6 21
-5 22 11 8 12 -10 16 -10 11 -2 -9 15 10 42 30 42 7 0 14 -10 16 -22 2 -13 9
-22 16 -21 15 4 15 -2 1 -30 -9 -20 -9 -20 4 -5 11 14 16 15 27 5 7 -7 5 0 -5
15 -9 15 -21 25 -26 22 -5 -3 -9 5 -9 17 0 21 1 21 18 6 10 -10 23 -17 28 -17
4 0 -3 8 -16 17 -14 10 -28 17 -32 15 -5 -1 -8 3 -8 8 0 6 7 10 15 10 8 0 15
5 15 11 0 8 5 8 15 -1 21 -18 19 -35 -2 -19 -16 13 -17 12 -4 -3 17 -23 18
-22 32 3 6 12 7 19 1 15 -16 -10 -22 21 -6 34 11 10 14 9 14 -3 0 -9 5 -19 10
-22 7 -4 9 2 5 18 -5 18 -1 28 19 40 14 10 32 17 40 17 8 0 17 4 20 9 4 5 -4
7 -16 4 -19 -4 -17 -2 6 11 33 19 40 20 31 6 -3 -5 -1 -10 5 -10 7 0 9 7 6 16
-4 12 8 31 39 62 38 37 48 42 60 32 9 -8 15 -8 15 -2 0 6 -5 12 -12 14 -11 4
7 27 83 110 14 15 30 24 34 20 5 -4 5 -2 1 5 -7 12 46 95 59 93 4 -1 9 1 13 4
3 3 -1 6 -8 6 -9 0 -7 6 6 19 10 10 23 16 28 13 5 -3 6 0 2 6 -9 15 58 135 69
125 4 -5 5 0 1 11 -5 13 -2 17 9 13 8 -4 17 -2 20 4 4 5 3 8 -2 7 -13 -5 -16
6 -9 30 4 12 12 22 17 22 6 0 7 5 4 10 -3 6 -2 10 2 10 5 0 9 10 10 21 1 12
10 31 20 42 10 11 12 17 6 13 -9 -5 -11 -2 -7 8 3 9 10 13 15 10 5 -3 6 3 2
12 -4 12 -2 15 8 12 19 -6 19 -39 0 -63 -16 -19 -15 -20 5 -2 24 20 27 46 7
69 -15 17 -9 43 7 33 5 -3 12 -1 15 5 4 6 3 9 -2 8 -7 -3 -15 7 -12 15 0 1 2
10 5 20 2 9 6 25 8 35 3 9 5 21 5 25 1 5 5 6 10 2 5 -3 13 0 17 6 4 7 3 9 -4
5 -6 -3 -13 -2 -17 4 -3 5 0 10 8 10 8 0 21 8 28 18 11 14 11 15 -1 5 -20 -19
-29 -16 -23 7 3 11 10 17 17 13 6 -4 5 0 -2 9 -11 14 -10 18 5 27 12 7 13 10
4 11 -10 0 -11 3 -2 13 6 8 9 16 6 18 -2 3 0 22 6 44 5 22 12 57 14 79 3 21
10 45 17 54 10 12 10 14 1 8 -14 -8 -18 6 -6 18 4 4 8 21 9 39 4 76 9 105 16
101 4 -3 8 0 8 5 0 6 -4 11 -9 11 -6 0 -9 9 -8 20 1 11 5 20 9 20 4 0 8 5 8
11 0 5 -4 8 -9 4 -6 -3 -6 7 0 27 5 18 12 56 15 83 4 46 10 85 13 94 0 2 7 -2
14 -8 8 -6 16 -9 18 -6 9 8 79 12 79 4 0 -5 -9 -13 -20 -19 -11 -6 -20 -7 -20
-1 0 5 -16 9 -36 8 -20 -1 -32 -3 -25 -5 6 -2 11 -8 11 -13 0 -6 -4 -8 -9 -5
-4 3 -8 -5 -7 -17 1 -12 -3 -26 -9 -30 -6 -5 -4 -7 5 -4 8 2 24 0 35 -6 11 -5
17 -6 13 -2 -4 4 4 16 18 27 20 16 28 18 39 8 11 -9 15 -9 15 -1 0 6 -4 11 -8
11 -5 0 -9 7 -9 15 0 8 3 15 6 15 10 0 37 -20 27 -20 -5 0 -3 -7 4 -15 17 -21
50 -13 66 16 7 13 14 20 14 14 0 -5 7 -2 15 9 11 14 28 19 70 20 31 0 55 -3
55 -9 0 -7 3 -7 8 0 8 12 37 13 48 2 10 -10 26 -9 20 1 -3 5 15 8 40 7 24 -1
44 0 44 1 0 2 -24 43 -52 91 -29 49 -62 107 -73 130 -11 24 -23 43 -27 43 -5
0 -8 6 -8 14 0 7 -7 19 -15 26 -9 7 -13 15 -11 18 3 2 -2 11 -10 19 -8 8 -12
19 -9 24 4 5 2 9 -2 9 -12 0 -44 56 -36 64 3 3 2 6 -4 6 -14 0 -64 96 -55 105
4 5 2 6 -3 2 -6 -3 -22 15 -35 41 -14 26 -30 53 -37 60 -7 8 -11 17 -8 22 3 5
2 10 -3 12 -13 5 -71 106 -65 112 4 3 2 6 -4 6 -5 0 -18 18 -28 40 -10 22 -22
40 -27 40 -4 0 -8 9 -8 20 0 11 -4 20 -8 20 -5 0 -21 25 -37 55 -15 31 -32 58
-36 61 -5 3 -7 10 -4 15 4 5 2 9 -3 9 -6 0 -19 19 -31 43 -12 23 -33 60 -47
82 -13 22 -27 48 -31 58 -3 9 -10 17 -15 17 -5 0 -7 4 -4 9 3 5 -1 14 -9 21
-8 7 -12 16 -9 21 3 5 1 9 -4 9 -5 0 -17 18 -28 40 -10 22 -22 40 -25 40 -4 0
-12 14 -19 30 -16 39 -24 38 -44 -5z m532 -1470 c12 -4 11 0 -4 16 -19 22 -19
22 5 14 15 -5 21 -4 17 3 -3 6 1 9 11 8 9 -2 19 -9 21 -16 3 -7 0 -10 -7 -6
-6 4 -16 -3 -22 -17 -12 -26 -53 -33 -55 -9 -1 6 -2 17 -3 23 0 5 -5 7 -11 4
-5 -3 -10 -2 -10 4 0 18 25 18 34 0 5 -10 16 -21 24 -24z m-113 5 c3 -5 13 -7
23 -4 12 4 11 2 -3 -7 -11 -7 -26 -19 -33 -26 -28 -28 -49 -8 -26 25 16 24 29
28 39 12z m-2210 -2139 c-3 -6 -11 -8 -17 -5 -6 4 -5 9 3 15 16 10 23 4 14
-10z m-1105 -1071 c0 -5 -5 -10 -11 -10 -5 0 -7 5 -4 10 3 6 8 10 11 10 2 0 4
-4 4 -10z"/>
<path d="M6150 5915 c-7 -9 -11 -17 -9 -20 3 -2 10 5 17 15 14 24 10 26 -8 5z"/>
<path d="M5595 7200 c-3 -5 -1 -10 4 -10 6 0 11 5 11 10 0 6 -2 10 -4 10 -3 0
-8 -4 -11 -10z"/>
<path d="M1816 5937 c3 -10 9 -15 12 -12 3 3 0 11 -7 18 -10 9 -11 8 -5 -6z"/>
<path d="M2880 5932 c-13 -14 -12 -15 4 -9 10 4 25 2 33 -4 7 -7 15 -10 17 -8
2 2 -6 11 -18 20 -19 15 -23 15 -36 1z"/>
<path d="M2973 5933 c-3 -7 -8 -11 -12 -9 -4 3 -8 -5 -8 -17 -2 -19 0 -18 16
7 10 15 22 27 26 26 3 -1 9 0 11 3 2 2 -3 4 -12 4 -9 0 -18 -6 -21 -14z"/>
<path d="M3020 5946 c0 -2 9 -6 20 -9 11 -3 18 -1 14 4 -5 9 -34 13 -34 5z"/>
<path d="M5157 5929 c4 -13 8 -18 11 -10 2 7 -1 18 -6 23 -8 8 -9 4 -5 -13z"/>
<path d="M5230 5945 c0 -5 5 -17 10 -25 5 -8 10 -10 10 -5 0 6 -5 17 -10 25
-5 8 -10 11 -10 5z"/>
<path d="M6375 5939 c-4 -6 -5 -12 -2 -15 2 -3 7 2 10 11 7 17 1 20 -8 4z"/>
<path d="M1759 5938 c-4 -10 -4 -107 0 -103 5 6 9 105 4 105 -2 0 -4 -1 -4 -2z"/>
<path d="M5091 5927 c-8 -10 -7 -14 2 -14 8 0 14 6 14 14 0 7 -1 13 -2 13 -2
0 -8 -6 -14 -13z"/>
<path d="M1798 5914 c-6 -22 12 -28 29 -9 4 4 3 5 -4 1 -7 -3 -13 1 -15 11 -3
15 -5 15 -10 -3z"/>
<path d="M1850 5919 c-12 -8 -10 -9 7 -4 19 5 22 3 17 -12 -5 -14 -4 -15 4 -3
19 25 0 38 -28 19z"/>
<path d="M5210 5923 c5 -2 10 -9 10 -14 0 -6 -4 -8 -9 -4 -5 3 -12 1 -15 -4
-4 -5 2 -8 11 -7 21 3 24 28 5 32 -7 1 -8 0 -2 -3z"/>
<path d="M6345 5920 c-3 -5 -1 -10 4 -10 6 0 11 5 11 10 0 6 -2 10 -4 10 -3 0
-8 -4 -11 -10z"/>
<path d="M1706 5902 c-2 -4 4 -8 14 -8 10 0 16 4 14 8 -3 4 -9 8 -14 8 -5 0
-11 -4 -14 -8z"/>
<path d="M1897 5903 c-10 -10 -8 -33 3 -33 5 0 6 7 3 17 -5 12 -3 14 7 8 9 -5
11 -4 6 3 -8 14 -10 14 -19 5z"/>
<path d="M2902 5896 c10 -7 15 -16 11 -20 -4 -4 0 -4 10 0 17 6 17 7 0 20 -10
7 -22 13 -28 13 -5 0 -2 -6 7 -13z"/>
<path d="M2975 5899 c-4 -6 -5 -12 -2 -15 2 -3 7 2 10 11 7 17 1 20 -8 4z"/>
<path d="M3110 5900 c0 -5 5 -10 11 -10 5 0 7 5 4 10 -3 6 -8 10 -11 10 -2 0
-4 -4 -4 -10z"/>
<path d="M5119 5908 c-5 -16 -4 -46 2 -42 4 2 7 13 6 24 -1 17 -5 26 -8 18z"/>
<path d="M5148 5898 c5 -5 16 -8 23 -6 8 3 3 7 -10 11 -17 4 -21 3 -13 -5z"/>
<path d="M6420 5905 c0 -2 6 -8 13 -14 10 -8 14 -7 14 2 0 8 -6 14 -14 14 -7
0 -13 -1 -13 -2z"/>
<path d="M6533 5889 c-2 -23 3 -25 10 -4 4 8 3 16 -1 19 -4 3 -9 -4 -9 -15z"/>
<path d="M2995 5890 c-3 -6 1 -7 9 -4 18 7 21 14 7 14 -6 0 -13 -4 -16 -10z"/>
<path d="M1659 5888 c-5 -18 -6 -38 -1 -34 7 8 12 36 6 36 -2 0 -4 -1 -5 -2z"/>
<path d="M1820 5879 c-13 -9 -13 -10 0 -6 8 2 21 -3 28 -12 11 -14 11 -13 2 7
-12 25 -11 25 -30 11z"/>
<path d="M2870 5880 c-11 -7 -11 -10 -2 -10 7 0 10 -4 7 -10 -4 -6 1 -7 11 -3
11 4 15 3 10 -5 -3 -6 -2 -13 3 -16 5 -4 8 2 7 11 -2 9 -8 19 -14 21 -7 2 -10
8 -6 13 7 11 3 11 -16 -1z"/>
<path d="M5220 5880 c-9 -6 -10 -10 -3 -10 6 0 15 5 18 10 8 12 4 12 -15 0z"/>
<path d="M6196 5875 c5 -11 2 -14 -12 -9 -15 6 -16 4 -7 -6 6 -7 16 -9 22 -6
14 9 15 36 1 36 -5 0 -7 -7 -4 -15z"/>
<path d="M6237 5883 c-4 -3 -7 -11 -7 -17 0 -6 5 -5 12 2 6 6 9 14 7 17 -3 3
-9 2 -12 -2z"/>
<path d="M6322 5876 c7 -8 15 -12 17 -11 5 6 -10 25 -20 25 -5 0 -4 -6 3 -14z"/>
<path d="M6370 5881 c0 -5 8 -8 18 -6 9 1 24 -2 32 -8 12 -9 13 -9 3 3 -15 16
-53 24 -53 11z"/>
<path d="M1912 5864 c-7 -8 -8 -14 -3 -14 10 0 25 19 20 25 -2 1 -10 -3 -17
-11z"/>
<path d="M2953 5865 c0 -8 4 -15 9 -15 4 0 8 4 8 9 0 6 -4 12 -8 15 -5 3 -9
-1 -9 -9z"/>
<path d="M6267 5868 c-13 -10 -14 -17 -6 -28 9 -12 10 -12 5 4 -5 14 -2 17 9
12 11 -4 14 -2 9 6 -5 8 -2 9 10 5 10 -4 15 -3 11 3 -8 13 -18 13 -38 -2z"/>
<path d="M3026 5858 c3 -5 10 -6 15 -3 13 9 11 12 -6 12 -8 0 -12 -4 -9 -9z"/>
<path d="M2853 5840 c4 -24 37 -43 37 -21 0 6 -7 7 -17 4 -9 -4 -14 -2 -10 3
3 6 1 16 -4 24 -7 11 -8 8 -6 -10z"/>
<path d="M5230 5853 c5 -2 8 -9 4 -14 -3 -5 0 -9 6 -9 15 0 7 23 -8 26 -7 1
-8 0 -2 -3z"/>
<path d="M6120 5850 c8 -5 15 -15 15 -21 0 -7 6 -13 13 -15 7 -1 8 0 2 3 -5 2
-7 9 -4 15 7 10 -13 28 -31 28 -5 0 -3 -5 5 -10z"/>
<path d="M1930 5838 c0 -11 12 -10 30 2 12 7 10 9 -8 7 -12 0 -22 -5 -22 -9z"/>
<path d="M2016 5835 c-3 -9 1 -18 9 -21 8 -4 12 -10 9 -15 -3 -5 3 -6 12 -2
11 4 13 8 6 11 -7 2 -10 8 -7 13 4 5 -1 6 -10 3 -11 -5 -14 -2 -9 10 3 9 4 16
1 16 -3 0 -8 -7 -11 -15z"/>
<path d="M2820 5835 c-11 -13 -10 -14 4 -9 9 3 16 10 16 15 0 13 -6 11 -20 -6z"/>
<path d="M2920 5846 c0 -2 7 -7 16 -10 8 -3 12 -2 9 4 -6 10 -25 14 -25 6z"/>
<path d="M3246 5838 c3 -5 10 -6 15 -3 13 9 11 12 -6 12 -8 0 -12 -4 -9 -9z"/>
<path d="M5060 5840 c-9 -6 -10 -10 -3 -10 6 0 15 5 18 10 8 12 4 12 -15 0z"/>
<path d="M6193 5832 c-17 -13 -20 -21 -12 -32 9 -13 10 -13 6 0 -2 8 8 23 22
32 14 10 22 18 16 18 -5 0 -20 -8 -32 -18z"/>
<path d="M2960 5836 c0 -2 7 -7 16 -10 8 -3 12 -2 9 4 -6 10 -25 14 -25 6z"/>
<path d="M6107 5833 c-8 -8 22 -43 37 -43 6 0 0 7 -12 16 -12 8 -20 20 -17 25
7 10 1 12 -8 2z"/>
<path d="M1860 5824 c0 -1 8 -8 17 -15 9 -8 14 -9 10 -2 -4 6 -1 13 5 16 7 3
3 4 -9 4 -13 -1 -23 -2 -23 -3z"/>
<path d="M1965 5822 c-13 -9 -19 -35 -6 -28 5 4 12 0 15 -6 3 -7 3 -2 0 11 -5
17 -3 21 6 16 9 -5 11 -4 6 3 -8 14 -8 14 -21 4z"/>
<path d="M3090 5820 c0 -5 5 -10 11 -10 5 0 7 5 4 10 -3 6 -8 10 -11 10 -2 0
-4 -4 -4 -10z"/>
<path d="M6228 5823 c7 -3 16 -2 19 1 4 3 -2 6 -13 5 -11 0 -14 -3 -6 -6z"/>
<path d="M6255 5811 c-3 -6 -15 -8 -27 -6 -11 3 -18 1 -14 -2 12 -13 35 -11
47 3 6 8 9 14 6 14 -3 0 -8 -4 -12 -9z"/>
<path d="M6293 5806 c0 -15 22 -15 34 0 4 5 4 6 -1 2 -5 -4 -14 -3 -21 2 -8 7
-12 5 -12 -4z"/>
<path d="M1899 5793 c-13 -16 -12 -17 4 -4 9 7 17 15 17 17 0 8 -8 3 -21 -13z"/>
<path d="M1996 5802 c-3 -5 1 -9 9 -9 8 0 12 4 9 9 -3 4 -7 8 -9 8 -2 0 -6 -4
-9 -8z"/>
<path d="M2835 5800 c27 -12 43 -12 25 0 -8 5 -22 9 -30 9 -10 0 -8 -3 5 -9z"/>
<path d="M2920 5806 c0 -2 8 -10 18 -17 15 -13 16 -12 3 4 -13 16 -21 21 -21
13z"/>
<path d="M2966 5802 c-3 -5 1 -9 9 -9 8 0 12 4 9 9 -3 4 -7 8 -9 8 -2 0 -6 -4
-9 -8z"/>
<path d="M5256 5798 c3 -5 10 -6 15 -3 13 9 11 12 -6 12 -8 0 -12 -4 -9 -9z"/>
<path d="M5307 5790 c-3 -11 -3 -20 -1 -20 2 0 8 9 14 20 6 11 7 20 2 20 -6 0
-12 -9 -15 -20z"/>
<path d="M6093 5797 c1 -10 6 -17 12 -17 5 1 13 -7 17 -17 7 -17 8 -17 5 0 -1
10 -6 17 -12 17 -5 -1 -13 7 -17 17 -7 17 -8 17 -5 0z"/>
<path d="M6395 5801 c-3 -5 -2 -12 3 -15 5 -3 9 1 9 9 0 17 -3 19 -12 6z"/>
<path d="M6430 5801 c0 -6 4 -13 10 -16 6 -3 7 1 4 9 -7 18 -14 21 -14 7z"/>
<path d="M1710 5797 c0 -2 6 -10 14 -16 11 -9 16 -9 22 1 4 7 4 10 -1 6 -4 -4
-14 -3 -22 3 -7 6 -13 9 -13 6z"/>
<path d="M5350 5790 c0 -5 5 -10 10 -10 6 0 10 5 10 10 0 6 -4 10 -10 10 -5 0
-10 -4 -10 -10z"/>
<path d="M2056 5777 c3 -10 9 -15 12 -12 3 3 0 11 -7 18 -10 9 -11 8 -5 -6z"/>
<path d="M3015 5780 c3 -5 8 -10 11 -10 2 0 4 5 4 10 0 6 -5 10 -11 10 -5 0
-7 -4 -4 -10z"/>
<path d="M3046 5782 c-3 -5 1 -9 9 -9 8 0 12 4 9 9 -3 4 -7 8 -9 8 -2 0 -6 -4
-9 -8z"/>
<path d="M6155 5780 c-3 -5 -4 -10 0 -10 3 0 1 -10 -5 -22 -10 -21 -10 -21 3
-6 9 11 17 14 23 8 6 -6 10 -3 10 9 0 12 -5 17 -15 13 -9 -3 -12 -1 -7 6 4 7
5 12 2 12 -3 0 -8 -4 -11 -10z"/>
<path d="M1995 5770 c-4 -6 -10 -8 -15 -5 -4 3 -14 -3 -21 -13 -12 -15 -12
-16 2 -5 9 7 18 11 21 8 3 -3 11 1 18 10 7 8 10 15 7 15 -3 0 -9 -5 -12 -10z"/>
<path d="M2830 5770 c-8 -5 -12 -12 -9 -15 4 -3 12 1 19 10 14 17 11 19 -10 5z"/>
<path d="M5276 5767 c3 -10 9 -15 12 -12 3 3 0 11 -7 18 -10 9 -11 8 -5 -6z"/>
<path d="M2026 5757 c-16 -12 -16 -13 2 -13 10 0 19 6 19 13 0 7 -1 13 -2 13
-1 0 -9 -6 -19 -13z"/>
<path d="M5325 5760 c-3 -6 1 -7 9 -4 18 7 21 14 7 14 -6 0 -13 -4 -16 -10z"/>
<path d="M2873 5745 c0 -7 6 -11 14 -8 7 3 13 6 13 8 0 2 -6 5 -13 8 -8 3 -14
-1 -14 -8z"/>
<path d="M1796 5733 c-6 -14 -5 -15 5 -6 7 7 10 15 7 18 -3 3 -9 -2 -12 -12z"/>
<path d="M2970 5740 c0 -5 5 -10 11 -10 5 0 7 5 4 10 -3 6 -8 10 -11 10 -2 0
-4 -4 -4 -10z"/>
<path d="M6096 5742 c-6 -10 5 -26 20 -29 6 -1 11 4 11 12 0 7 -7 11 -15 7
-10 -3 -13 -1 -8 6 4 7 5 12 2 12 -3 0 -7 -4 -10 -8z"/>
<path d="M6336 5742 c-2 -4 -1 -14 4 -22 7 -11 9 -9 7 8 -1 24 -3 26 -11 14z"/>
<path d="M2910 5737 c0 -2 6 -10 14 -16 11 -9 16 -9 22 1 4 7 4 10 -1 6 -4 -4
-14 -3 -22 3 -7 6 -13 9 -13 6z"/>
<path d="M2013 5713 c0 -8 5 -9 11 -4 6 5 19 7 28 6 10 -2 20 0 22 4 3 4 -10
7 -28 7 -20 0 -33 -5 -33 -13z"/>
<path d="M5336 5718 c3 -5 10 -6 15 -3 13 9 11 12 -6 12 -8 0 -12 -4 -9 -9z"/>
<path d="M6425 5720 c-3 -6 1 -7 9 -4 18 7 21 14 7 14 -6 0 -13 -4 -16 -10z"/>
<path d="M1933 5695 c0 -8 4 -12 9 -9 5 3 6 10 3 15 -9 13 -12 11 -12 -6z"/>
<path d="M2079 5708 c-7 -23 -4 -35 7 -35 10 0 11 4 3 13 -7 8 -6 14 3 17 10
4 10 6 1 6 -7 1 -13 0 -14 -1z"/>
<path d="M6131 5687 c-8 -10 -7 -14 2 -14 8 0 14 6 14 14 0 7 -1 13 -2 13 -2
0 -8 -6 -14 -13z"/>
<path d="M1960 5680 c-9 -6 -10 -10 -3 -10 6 0 15 5 18 10 8 12 4 12 -15 0z"/>
<path d="M3036 5678 c3 -5 10 -6 15 -3 13 9 11 12 -6 12 -8 0 -12 -4 -9 -9z"/>
<path d="M5306 5678 c3 -5 9 -7 12 -4 3 3 12 0 21 -6 13 -10 14 -10 4 2 -15
16 -46 23 -37 8z"/>
<path d="M2866 5658 c3 -5 10 -6 15 -3 13 9 11 12 -6 12 -8 0 -12 -4 -9 -9z"/>
<path d="M6115 5650 c-4 -6 -10 -8 -14 -6 -4 3 -8 -1 -8 -9 0 -13 4 -12 19 2
18 16 22 23 14 23 -3 0 -8 -5 -11 -10z"/>
<path d="M1995 5601 c-3 -5 -2 -12 3 -15 5 -3 9 1 9 9 0 17 -3 19 -12 6z"/>
<path d="M2079 5588 c-5 -18 -6 -38 -1 -34 7 8 12 36 6 36 -2 0 -4 -1 -5 -2z"/>
<path d="M5299 5548 c-5 -18 -6 -38 -1 -34 7 8 12 36 6 36 -2 0 -4 -1 -5 -2z"/>
<path d="M2055 5520 c-3 -5 -1 -10 4 -10 6 0 11 5 11 10 0 6 -2 10 -4 10 -3 0
-8 -4 -11 -10z"/>
<path d="M6155 5520 c3 -5 8 -10 11 -10 2 0 4 5 4 10 0 6 -5 10 -11 10 -5 0
-7 -4 -4 -10z"/>
<path d="M5275 5440 c-3 -5 -1 -10 4 -10 6 0 11 5 11 10 0 6 -2 10 -4 10 -3 0
-8 -4 -11 -10z"/>
<path d="M2095 5420 c-3 -5 -1 -10 4 -10 6 0 11 5 11 10 0 6 -2 10 -4 10 -3 0
-8 -4 -11 -10z"/>
<path d="M6190 5416 c0 -2 8 -10 18 -17 15 -13 16 -12 3 4 -13 16 -21 21 -21
13z"/>
<path d="M2907 5399 c7 -7 15 -10 18 -7 3 3 -2 9 -12 12 -14 6 -15 5 -6 -5z"/>
<path d="M2096 5382 c-3 -4 4 -9 15 -9 23 -2 25 3 4 10 -8 4 -16 3 -19 -1z"/>
<path d="M2148 5378 c5 -5 16 -8 23 -6 8 3 3 7 -10 11 -17 4 -21 3 -13 -5z"/>
<path d="M6096 5378 c3 -4 11 -5 19 -1 21 7 19 12 -4 10 -11 0 -18 -5 -15 -9z"/>
<path d="M2136 5318 c3 -5 10 -6 15 -3 13 9 11 12 -6 12 -8 0 -12 -4 -9 -9z"/>
<path d="M2137 5235 c-4 -8 -3 -16 1 -19 4 -3 9 4 9 15 2 23 -3 25 -10 4z"/>
<path d="M6050 5219 c0 -5 5 -7 10 -4 6 3 10 8 10 11 0 2 -4 4 -10 4 -5 0 -10
-5 -10 -11z"/>
<path d="M2235 5127 c1 -17 -3 -39 -9 -47 -9 -13 -9 -13 5 -2 15 11 21 64 8
76 -3 3 -5 -9 -4 -27z"/>
<path d="M2175 5140 c-3 -5 -1 -10 4 -10 6 0 11 5 11 10 0 6 -2 10 -4 10 -3 0
-8 -4 -11 -10z"/>
<path d="M5988 5143 c7 -3 16 -2 19 1 4 3 -2 6 -13 5 -11 0 -14 -3 -6 -6z"/>
<path d="M6056 5138 c3 -5 10 -6 15 -3 13 9 11 12 -6 12 -8 0 -12 -4 -9 -9z"/>
<path d="M2175 5100 c3 -5 8 -10 11 -10 2 0 4 5 4 10 0 6 -5 10 -11 10 -5 0
-7 -4 -4 -10z"/>
<path d="M6070 5096 c0 -2 8 -10 18 -17 15 -13 16 -12 3 4 -13 16 -21 21 -21
13z"/>
<path d="M6079 5013 c-13 -16 -12 -17 4 -4 9 7 17 15 17 17 0 8 -8 3 -21 -13z"/>
<path d="M2275 5010 c-4 -6 -11 -7 -17 -4 -7 4 -8 2 -4 -5 6 -9 11 -9 22 0 14
11 18 19 10 19 -3 0 -8 -5 -11 -10z"/>
<path d="M6015 5000 c-3 -5 -1 -10 4 -10 6 0 11 5 11 10 0 6 -2 10 -4 10 -3 0
-8 -4 -11 -10z"/>
<path d="M5970 4979 c0 -5 5 -7 10 -4 6 3 10 8 10 11 0 2 -4 4 -10 4 -5 0 -10
-5 -10 -11z"/>
<path d="M2299 4978 c-5 -18 -6 -38 -1 -34 7 8 12 36 6 36 -2 0 -4 -1 -5 -2z"/>
<path d="M2150 4961 c0 -6 4 -13 10 -16 6 -3 7 1 4 9 -7 18 -14 21 -14 7z"/>
<path d="M2220 4960 c-9 -6 -10 -10 -3 -10 6 0 15 5 18 10 8 12 4 12 -15 0z"/>
<path d="M5918 4958 c-9 -5 -6 -7 9 -5 12 2 25 6 28 8 8 9 -23 6 -37 -3z"/>
<path d="M2324 4934 c-18 -15 -18 -15 2 -5 12 6 25 7 29 3 5 -4 5 -1 1 6 -9
15 -8 15 -32 -4z"/>
<path d="M5934 4929 c-3 -6 -2 -15 3 -20 5 -5 9 -1 9 11 0 23 -2 24 -12 9z"/>
<path d="M2305 4899 c-3 -4 2 -6 10 -5 21 3 28 13 10 13 -9 0 -18 -4 -20 -8z"/>
<path d="M5875 4900 c-3 -5 -1 -10 4 -10 6 0 11 5 11 10 0 6 -2 10 -4 10 -3 0
-8 -4 -11 -10z"/>
<path d="M5976 4902 c-3 -5 1 -9 9 -9 8 0 12 4 9 9 -3 4 -7 8 -9 8 -2 0 -6 -4
-9 -8z"/>
<path d="M2355 4870 c-3 -6 1 -7 9 -4 18 7 21 14 7 14 -6 0 -13 -4 -16 -10z"/>
<path d="M2256 4861 c-3 -5 2 -15 12 -22 15 -12 16 -12 5 2 -7 9 -10 19 -6 22
3 4 4 7 0 7 -3 0 -8 -4 -11 -9z"/>
<path d="M5996 4842 c-3 -5 1 -9 9 -9 8 0 12 4 9 9 -3 4 -7 8 -9 8 -2 0 -6 -4
-9 -8z"/>
<path d="M2295 4820 c-2 -3 5 -6 15 -7 11 -1 22 2 24 5 3 4 -4 8 -15 8 -11 0
-22 -3 -24 -6z"/>
<path d="M2364 4802 c23 -26 23 -26 23 -7 0 8 -3 13 -5 10 -3 -3 -12 1 -21 7
-10 8 -9 4 3 -10z"/>
<path d="M2415 4800 c-3 -5 -1 -10 4 -10 6 0 11 5 11 10 0 6 -2 10 -4 10 -3 0
-8 -4 -11 -10z"/>
<path d="M5876 4793 c-6 -14 -5 -15 5 -6 7 7 10 15 7 18 -3 3 -9 -2 -12 -12z"/>
<path d="M5840 4791 c0 -6 4 -13 10 -16 6 -3 7 1 4 9 -7 18 -14 21 -14 7z"/>
<path d="M2335 4780 c3 -5 8 -10 11 -10 2 0 4 5 4 10 0 6 -5 10 -11 10 -5 0
-7 -4 -4 -10z"/>
<path d="M5936 4778 c3 -5 10 -6 15 -3 13 9 11 12 -6 12 -8 0 -12 -4 -9 -9z"/>
<path d="M5798 4752 c-3 -11 0 -19 7 -19 7 0 10 8 7 19 -2 10 -6 18 -7 18 -1
0 -5 -8 -7 -18z"/>
<path d="M2436 4747 c3 -10 9 -15 12 -12 3 3 0 11 -7 18 -10 9 -11 8 -5 -6z"/>
<path d="M2336 4738 c3 -5 10 -6 15 -3 13 9 11 12 -6 12 -8 0 -12 -4 -9 -9z"/>
<path d="M5840 4740 c-9 -6 -10 -10 -3 -10 6 0 15 5 18 10 8 12 4 12 -15 0z"/>
<path d="M2423 4724 c9 -11 14 -24 10 -27 -3 -4 -1 -7 5 -7 19 0 14 15 -10 36
-23 19 -23 19 -5 -2z"/>
<path d="M5775 4680 c3 -5 8 -10 11 -10 2 0 4 5 4 10 0 6 -5 10 -11 10 -5 0
-7 -4 -4 -10z"/>
<path d="M2433 4667 c0 -8 6 -14 14 -14 9 0 10 4 2 14 -6 7 -12 13 -14 13 -1
0 -2 -6 -2 -13z"/>
<path d="M5775 4650 c-4 -6 -11 -7 -17 -4 -6 4 -8 2 -4 -4 3 -5 1 -12 -6 -14
-7 -3 -2 -7 10 -10 13 -4 20 -2 16 3 -3 6 0 16 6 24 7 8 10 15 7 15 -3 0 -9
-5 -12 -10z"/>
<path d="M5796 4633 c-6 -14 -5 -15 5 -6 7 7 10 15 7 18 -3 3 -9 -2 -12 -12z"/>
<path d="M2515 4600 c-3 -5 -1 -10 4 -10 6 0 11 5 11 10 0 6 -2 10 -4 10 -3 0
-8 -4 -11 -10z"/>
<path d="M5736 4598 c3 -5 10 -6 15 -3 13 9 11 12 -6 12 -8 0 -12 -4 -9 -9z"/>
<path d="M5825 4600 c-3 -6 1 -7 9 -4 18 7 21 14 7 14 -6 0 -13 -4 -16 -10z"/>
<path d="M2555 4590 c-3 -5 -1 -10 4 -10 6 0 11 5 11 10 0 6 -2 10 -4 10 -3 0
-8 -4 -11 -10z"/>
<path d="M2406 4582 c-3 -5 1 -9 9 -9 8 0 12 4 9 9 -3 4 -7 8 -9 8 -2 0 -6 -4
-9 -8z"/>
<path d="M5710 4582 c0 -5 10 -17 23 -28 22 -19 22 -19 4 2 -9 11 -14 24 -10
27 3 4 1 7 -5 7 -7 0 -12 -4 -12 -8z"/>
<path d="M2533 4565 c0 -7 6 -11 14 -8 7 3 13 6 13 8 0 2 -6 5 -13 8 -8 3 -14
-1 -14 -8z"/>
<path d="M2588 4543 c7 -3 16 -2 19 1 4 3 -2 6 -13 5 -11 0 -14 -3 -6 -6z"/>
<path d="M5670 4540 c0 -5 5 -10 10 -10 6 0 10 5 10 10 0 6 -4 10 -10 10 -5 0
-10 -4 -10 -10z"/>
<path d="M5770 4539 c0 -5 5 -7 10 -4 6 3 10 8 10 11 0 2 -4 4 -10 4 -5 0 -10
-5 -10 -11z"/>
<path d="M2506 4518 c3 -4 9 -8 15 -8 5 0 9 4 9 8 0 5 -7 9 -15 9 -8 0 -12 -4
-9 -9z"/>
<path d="M5634 4522 c3 -6 1 -12 -6 -14 -7 -3 -5 -7 6 -11 11 -5 15 -3 10 5
-5 8 -2 9 9 5 24 -9 21 0 -4 14 -13 6 -19 7 -15 1z"/>
<path d="M5715 4520 c-3 -5 -1 -10 4 -10 6 0 11 5 11 10 0 6 -2 10 -4 10 -3 0
-8 -4 -11 -10z"/>
<path d="M5775 4509 c-4 -6 -5 -12 -2 -15 2 -3 7 2 10 11 7 17 1 20 -8 4z"/>
<path d="M2615 4500 c-3 -5 -1 -18 4 -27 6 -11 11 -13 11 -5 0 7 5 10 12 6 7
-4 8 -3 4 5 -4 6 -12 8 -18 5 -7 -5 -9 -1 -5 9 7 19 2 23 -8 7z"/>
<path d="M3256 4487 c3 -8 11 -14 19 -14 20 0 19 4 -5 17 -15 8 -18 8 -14 -3z"/>
<path d="M5696 4487 c3 -10 9 -15 12 -12 3 3 0 11 -7 18 -10 9 -11 8 -5 -6z"/>
<path d="M5595 4480 c-3 -5 -1 -10 4 -10 6 0 11 5 11 10 0 6 -2 10 -4 10 -3 0
-8 -4 -11 -10z"/>
<path d="M5675 4483 c3 -3 0 -11 -5 -18 -7 -8 -5 -12 4 -12 14 0 16 22 3 32
-4 3 -5 2 -2 -2z"/>
<path d="M5726 4478 c3 -5 10 -6 15 -3 13 9 11 12 -6 12 -8 0 -12 -4 -9 -9z"/>
<path d="M2474 4462 c4 -3 14 -7 22 -8 9 -1 13 0 10 4 -4 3 -14 7 -22 8 -9 1
-13 0 -10 -4z"/>
<path d="M2645 4442 l-16 -27 20 23 c11 13 22 18 26 12 6 -10 45 -34 45 -27 0
2 -13 13 -29 25 l-29 21 -17 -27z"/>
<path d="M3310 4460 c0 -5 5 -10 11 -10 5 0 7 5 4 10 -3 6 -8 10 -11 10 -2 0
-4 -4 -4 -10z"/>
<path d="M5616 4462 c-2 -4 -1 -14 3 -20 6 -10 11 -9 21 3 11 13 10 14 -5 9
-13 -5 -16 -4 -11 4 4 7 5 12 2 12 -3 0 -7 -4 -10 -8z"/>
<path d="M3244 4438 c-12 -14 -13 -18 -3 -10 9 6 18 10 21 7 2 -3 5 2 5 10 0
19 0 19 -23 -7z"/>
<path d="M5582 4440 c0 -14 2 -19 5 -12 2 6 2 18 0 25 -3 6 -5 1 -5 -13z"/>
<path d="M2606 4438 c3 -5 10 -6 15 -3 13 9 11 12 -6 12 -8 0 -12 -4 -9 -9z"/>
<path d="M3148 4443 c7 -3 16 -2 19 1 4 3 -2 6 -13 5 -11 0 -14 -3 -6 -6z"/>
<path d="M2675 4420 c6 -9 4 -12 -7 -8 -8 4 -15 1 -15 -7 0 -8 7 -11 15 -7 11
4 13 1 7 -9 -5 -8 -4 -11 0 -6 13 12 15 36 3 44 -7 4 -8 1 -3 -7z"/>
<path d="M3083 4423 c-7 -2 -13 -9 -13 -15 0 -6 6 -6 15 2 12 10 15 10 15 -4
0 -9 5 -16 10 -16 7 0 7 6 0 20 -6 11 -12 20 -13 19 -1 0 -8 -3 -14 -6z"/>
<path d="M3133 4417 c-3 -5 -2 -11 1 -14 3 -4 6 -1 6 6 0 7 4 10 8 7 4 -2 14
-1 22 4 11 7 9 9 -8 7 -13 -1 -26 -5 -29 -10z"/>
<path d="M3198 4423 c7 -3 16 -2 19 1 4 3 -2 6 -13 5 -11 0 -14 -3 -6 -6z"/>
<path d="M5690 4419 c0 -5 5 -7 10 -4 6 3 10 8 10 11 0 2 -4 4 -10 4 -5 0 -10
-5 -10 -11z"/>
<path d="M2596 4407 c3 -10 9 -15 12 -12 3 3 0 11 -7 18 -10 9 -11 8 -5 -6z"/>
<path d="M5653 4405 c0 -8 4 -12 9 -9 5 3 6 10 3 15 -9 13 -12 11 -12 -6z"/>
<path d="M3160 4400 c-8 -5 -10 -10 -5 -10 6 0 17 5 25 10 8 5 11 10 5 10 -5
0 -17 -5 -25 -10z"/>
<path d="M5572 4401 c-11 -7 -11 -9 0 -14 9 -3 15 1 15 9 0 8 -1 14 -1 14 -1
0 -7 -4 -14 -9z"/>
<path d="M3035 4390 c-8 -13 3 -30 18 -30 7 0 6 4 -3 10 -13 9 -13 11 0 20 9
6 10 10 3 10 -6 0 -15 -4 -18 -10z"/>
<path d="M5516 4385 c-9 -26 -7 -32 5 -12 6 10 9 21 6 23 -2 3 -7 -2 -11 -11z"/>
<path d="M2570 4379 c0 -5 5 -7 10 -4 6 3 10 8 10 11 0 2 -4 4 -10 4 -5 0 -10
-5 -10 -11z"/>
<path d="M2995 4371 c-4 -12 -4 -25 -1 -28 3 -4 6 1 6 11 0 9 5 14 10 11 6 -4
8 -10 5 -15 -5 -8 37 -40 52 -40 4 0 -5 9 -20 19 -16 10 -27 20 -26 22 2 2 -2
13 -8 23 -10 18 -11 18 -18 -3z"/>
<path d="M3070 4380 c0 -5 5 -10 10 -10 6 0 10 5 10 10 0 6 -4 10 -10 10 -5 0
-10 -4 -10 -10z"/>
<path d="M3290 4379 c0 -5 5 -7 10 -4 6 3 10 8 10 11 0 2 -4 4 -10 4 -5 0 -10
-5 -10 -11z"/>
<path d="M3333 4376 c-3 -6 -3 -8 2 -4 4 4 13 3 20 -2 8 -7 12 -5 12 3 0 16
-25 18 -34 3z"/>
<path d="M2702 4367 c11 -9 14 -17 8 -23 -6 -6 -3 -10 9 -10 12 0 17 5 13 15
-4 10 -1 12 9 6 8 -4 12 -6 9 -2 -3 3 -9 6 -15 7 -5 1 -19 6 -30 12 -18 8 -19
8 -3 -5z"/>
<path d="M2675 4363 c3 -3 0 -11 -5 -18 -7 -8 -5 -12 4 -12 14 0 16 22 3 32
-4 3 -5 2 -2 -2z"/>
<path d="M2960 4355 c-7 -9 -8 -15 -2 -15 5 0 12 7 16 15 3 8 4 15 2 15 -2 0
-9 -7 -16 -15z"/>
<path d="M3108 4363 c6 -3 10 -8 7 -13 -3 -4 1 -10 8 -13 7 -3 13 3 13 12 0
10 -9 17 -21 18 -11 1 -14 -1 -7 -4z"/>
<path d="M3190 4355 c5 -7 8 -14 5 -17 -3 -2 2 -5 10 -5 10 0 12 4 5 12 -5 7
-8 14 -5 17 3 2 -2 5 -10 5 -10 0 -12 -4 -5 -12z"/>
<path d="M5476 4355 c-9 -26 -7 -32 5 -12 6 10 9 21 6 23 -2 3 -7 -2 -11 -11z"/>
<path d="M5530 4360 c0 -5 5 -10 10 -10 6 0 10 5 10 10 0 6 -4 10 -10 10 -5 0
-10 -4 -10 -10z"/>
<path d="M3295 4351 c-3 -5 -2 -12 3 -15 5 -3 9 1 9 9 0 17 -3 19 -12 6z"/>
<path d="M3050 4348 c0 -2 9 -11 20 -21 11 -9 20 -13 20 -7 0 5 -9 14 -20 20
-11 6 -20 9 -20 8z"/>
<path d="M5495 4339 c-8 -12 0 -22 20 -25 8 -1 13 2 9 7 -3 5 -10 6 -16 3 -7
-5 -9 -1 -5 9 7 19 2 23 -8 6z"/>
<path d="M5650 4340 c0 -5 5 -10 11 -10 5 0 7 5 4 10 -3 6 -8 10 -11 10 -2 0
-4 -4 -4 -10z"/>
<path d="M5554 4332 c4 -7 2 -21 -5 -30 -12 -15 -11 -15 6 0 16 15 17 20 6 30
-11 11 -13 10 -7 0z"/>
<path d="M5715 4329 c-4 -6 -5 -12 -2 -15 2 -3 7 2 10 11 7 17 1 20 -8 4z"/>
<path d="M2916 4315 c-11 -8 -16 -15 -10 -15 5 0 18 7 28 15 11 8 16 15 10 15
-5 0 -18 -7 -28 -15z"/>
<path d="M2992 4314 c-7 -8 -8 -14 -3 -14 10 0 25 19 20 25 -2 1 -10 -3 -17
-11z"/>
<path d="M3240 4320 c-9 -6 -10 -10 -3 -10 6 0 15 5 18 10 8 12 4 12 -15 0z"/>
<path d="M5580 4326 c0 -2 8 -10 18 -17 15 -13 16 -12 3 4 -13 16 -21 21 -21
13z"/>
<path d="M2936 4301 c-4 -5 3 -7 14 -4 23 6 26 13 6 13 -8 0 -17 -4 -20 -9z"/>
<path d="M5473 4303 c4 -3 1 -13 -6 -22 -11 -14 -10 -14 6 -2 20 15 22 31 5
31 -6 0 -8 -3 -5 -7z"/>
<path d="M2734 4289 c-3 -6 -2 -15 3 -20 5 -5 9 -1 9 11 0 23 -2 24 -12 9z"/>
<path d="M3086 4285 c-11 -8 -15 -15 -9 -15 6 0 16 7 23 15 16 19 11 19 -14 0z"/>
<path d="M2886 4281 c-19 -7 -19 -8 0 -13 13 -3 21 0 21 8 0 8 -1 14 -1 13 -1
0 -10 -4 -20 -8z"/>
<path d="M2970 4286 c0 -2 7 -7 16 -10 8 -3 12 -2 9 4 -6 10 -25 14 -25 6z"/>
<path d="M3295 4280 c3 -5 8 -10 11 -10 2 0 4 5 4 10 0 6 -5 10 -11 10 -5 0
-7 -4 -4 -10z"/>
<path d="M5430 4281 c0 -5 7 -15 17 -22 15 -13 15 -12 4 9 -12 23 -21 28 -21
13z"/>
<path d="M3036 4267 c3 -10 9 -15 12 -12 3 3 0 11 -7 18 -10 9 -11 8 -5 -6z"/>
<path d="M5388 4273 c6 -2 10 -9 7 -14 -4 -5 1 -6 10 -2 13 5 14 7 3 14 -7 5
-17 8 -23 8 -5 0 -4 -3 3 -6z"/>
<path d="M3175 4260 c3 -5 8 -10 11 -10 2 0 4 5 4 10 0 6 -5 10 -11 10 -5 0
-7 -4 -4 -10z"/>
<path d="M2853 4245 c0 -7 5 -13 11 -12 6 1 10 -5 8 -13 -2 -8 0 -11 4 -7 4 4
9 15 10 23 1 9 0 13 -3 10 -4 -3 -11 -1 -18 4 -8 7 -12 5 -12 -5z"/>
<path d="M5366 4245 c-3 -8 -1 -15 5 -15 6 0 7 -5 3 -12 -4 -6 -3 -8 4 -5 5 4
8 16 5 27 -6 24 -9 25 -17 5z"/>
<path d="M2734 4236 c1 -8 5 -18 8 -22 4 -3 5 1 4 10 -1 8 -5 18 -8 22 -4 3
-5 -1 -4 -10z"/>
<path d="M3215 4240 c-3 -5 -1 -10 4 -10 6 0 11 5 11 10 0 6 -2 10 -4 10 -3 0
-8 -4 -11 -10z"/>
<path d="M5410 4239 c0 -5 5 -7 10 -4 6 3 10 8 10 11 0 2 -4 4 -10 4 -5 0 -10
-5 -10 -11z"/>
<path d="M3055 4220 c3 -5 8 -10 11 -10 2 0 4 5 4 10 0 6 -5 10 -11 10 -5 0
-7 -4 -4 -10z"/>
<path d="M3090 4219 c0 -5 5 -7 10 -4 6 3 10 8 10 11 0 2 -4 4 -10 4 -5 0 -10
-5 -10 -11z"/>
<path d="M5388 4193 c-4 -13 0 -19 13 -19 14 0 16 3 6 16 -6 8 -12 16 -13 18
-1 1 -4 -5 -6 -15z"/>
<path d="M5350 4189 c0 -5 -6 -7 -12 -3 -7 4 -9 3 -5 -1 13 -15 36 -14 30 1
-6 17 -13 18 -13 3z"/>
<path d="M2816 4178 c3 -4 11 -5 19 -1 21 7 19 12 -4 10 -11 0 -18 -5 -15 -9z"/>
<path d="M3010 4180 c0 -5 5 -10 11 -10 5 0 7 5 4 10 -3 6 -8 10 -11 10 -2 0
-4 -4 -4 -10z"/>
<path d="M5216 4162 c-3 -5 1 -9 9 -9 8 0 12 4 9 9 -3 4 -7 8 -9 8 -2 0 -6 -4
-9 -8z"/>
<path d="M5450 4161 c0 -6 4 -13 10 -16 6 -3 7 1 4 9 -7 18 -14 21 -14 7z"/>
<path d="M5348 4143 c7 -3 16 -2 19 1 4 3 -2 6 -13 5 -11 0 -14 -3 -6 -6z"/>
<path d="M5216 4125 c-3 -8 -1 -15 4 -15 6 0 10 7 10 15 0 8 -2 15 -4 15 -2 0
-6 -7 -10 -15z"/>
<path d="M2985 4120 c-3 -6 1 -7 9 -4 18 7 21 14 7 14 -6 0 -13 -4 -16 -10z"/>
<path d="M5120 4090 c-8 -5 -11 -12 -8 -16 4 -3 14 1 23 10 18 17 9 21 -15 6z"/>
<path d="M5161 4082 c-1 -13 -5 -21 -10 -17 -6 3 -15 -5 -21 -17 -10 -21 -10
-21 3 -6 8 10 17 15 20 11 9 -8 20 23 14 39 -3 7 -6 3 -6 -10z"/>
<path d="M5190 4090 c0 -5 7 -7 15 -4 8 4 15 8 15 10 0 2 -7 4 -15 4 -8 0 -15
-4 -15 -10z"/>
<path d="M5045 4060 c-4 -6 -10 -8 -15 -5 -5 3 -11 1 -15 -4 -7 -13 35 -5 49
9 7 7 6 10 -1 10 -7 0 -15 -5 -18 -10z"/>
<path d="M5071 4049 c-13 -10 -18 -19 -12 -19 6 0 14 0 19 0 4 0 7 4 7 9 0 5
4 13 9 18 5 4 7 -4 4 -19 -3 -15 -1 -25 3 -22 11 6 12 41 1 47 -4 3 -18 -3
-31 -14z"/>
<path d="M5390 4060 c0 -5 5 -10 11 -10 5 0 7 5 4 10 -3 6 -8 10 -11 10 -2 0
-4 -4 -4 -10z"/>
<path d="M5197 4053 c-10 -9 -9 -23 1 -23 5 0 9 7 9 15 0 17 -1 18 -10 8z"/>
<path d="M5153 4015 c0 -8 4 -12 9 -9 5 3 6 10 3 15 -9 13 -12 11 -12 -6z"/>
<path d="M4950 4001 c0 -23 29 -36 36 -16 3 8 4 20 1 27 -3 7 -6 3 -6 -10 -1
-14 -5 -20 -12 -17 -6 4 -8 13 -5 21 3 8 1 14 -4 14 -6 0 -10 -9 -10 -19z"/>
<path d="M5032 4004 c-7 -8 -8 -14 -3 -14 10 0 25 19 20 25 -2 1 -10 -3 -17
-11z"/>
<path d="M5105 3999 c-4 -6 -5 -12 -2 -15 2 -3 7 2 10 11 7 17 1 20 -8 4z"/>
<path d="M5176 4002 c-3 -5 1 -9 9 -9 8 0 12 4 9 9 -3 4 -7 8 -9 8 -2 0 -6 -4
-9 -8z"/>
<path d="M4920 3990 c-8 -5 -12 -12 -9 -15 4 -3 12 1 19 10 14 17 11 19 -10 5z"/>
<path d="M4991 3967 c-13 -21 -12 -21 5 -5 10 10 16 20 13 22 -3 3 -11 -5 -18
-17z"/>
<path d="M5194 3969 c-3 -6 -2 -15 3 -20 5 -5 9 -1 9 11 0 23 -2 24 -12 9z"/>
<path d="M4930 3960 c0 -5 5 -10 10 -10 6 0 10 5 10 10 0 6 -4 10 -10 10 -5 0
-10 -4 -10 -10z"/>
<path d="M5015 3960 c-3 -6 1 -7 9 -4 18 7 21 14 7 14 -6 0 -13 -4 -16 -10z"/>
<path d="M5080 3965 c0 -2 6 -8 13 -14 10 -8 14 -7 14 2 0 8 -6 14 -14 14 -7
0 -13 -1 -13 -2z"/>
<path d="M4805 3950 c-3 -6 1 -7 9 -4 18 7 21 14 7 14 -6 0 -13 -4 -16 -10z"/>
<path d="M4843 3953 c4 -7 -1 -14 -12 -18 -13 -4 -18 -11 -14 -22 5 -12 3 -14
-7 -8 -9 5 -11 4 -6 -4 9 -14 26 -5 26 14 0 17 27 27 34 12 3 -8 5 -8 5 -1 1
6 -7 18 -16 25 -9 8 -14 9 -10 2z"/>
<path d="M5026 3941 c-4 -5 3 -7 14 -4 23 6 26 13 6 13 -8 0 -17 -4 -20 -9z"/>
<path d="M4755 3931 c6 -11 4 -13 -9 -8 -11 4 -15 3 -11 -4 4 -6 13 -8 21 -5
7 3 16 1 19 -4 3 -5 -2 -11 -10 -13 -11 -4 -10 -4 2 -3 10 1 16 5 15 10 -2 5
2 13 10 18 10 8 9 9 -3 5 -9 -3 -22 0 -29 6 -10 9 -11 9 -5 -2z"/>
<path d="M4946 3924 c-6 -15 -4 -15 11 -3 10 7 20 15 22 16 2 2 -3 3 -11 3 -9
0 -19 -7 -22 -16z"/>
<path d="M4993 3925 c0 -8 4 -12 9 -9 5 3 6 10 3 15 -9 13 -12 11 -12 -6z"/>
<path d="M4880 3921 c0 -5 7 -12 16 -15 14 -5 15 -4 4 9 -14 17 -20 19 -20 6z"/>
<path d="M4682 3913 c-6 -2 -10 -9 -6 -14 3 -5 -10 -16 -28 -24 -18 -8 -26
-14 -18 -15 9 0 25 7 36 15 20 14 34 11 34 -7 0 -4 -5 -7 -11 -5 -19 4 -20
-17 -4 -38 16 -19 16 -19 6 2 -13 27 -14 36 -2 28 15 -9 24 15 11 30 -6 8 -9
19 -5 25 7 11 6 11 -13 3z"/>
<path d="M4710 3900 c0 -6 4 -9 9 -5 5 3 11 -5 13 -17 2 -18 9 -22 28 -20 24
3 24 2 6 -13 -11 -8 -15 -15 -9 -15 6 0 16 7 23 15 10 12 9 16 -3 21 -9 3 -20
3 -26 0 -5 -4 -11 4 -13 16 -3 22 -28 39 -28 18z"/>
<path d="M4853 3894 c-3 -8 -2 -19 3 -24 5 -5 9 1 9 16 0 28 -3 30 -12 8z"/>
<path d="M5135 3900 c3 -5 8 -10 11 -10 2 0 4 5 4 10 0 6 -5 10 -11 10 -5 0
-7 -4 -4 -10z"/>
<path d="M4635 3890 c-3 -6 1 -7 9 -4 18 7 21 14 7 14 -6 0 -13 -4 -16 -10z"/>
<path d="M5250 3860 c-30 -22 -61 -44 -67 -50 -7 -6 -13 -8 -13 -5 0 4 -7 -1
-16 -9 -8 -9 -22 -16 -30 -16 -8 0 -14 -5 -14 -11 0 -6 -9 -9 -20 -6 -11 3
-18 1 -14 -4 5 -9 -43 -34 -58 -31 -5 1 -8 -1 -8 -6 0 -10 -49 -31 -80 -34
-14 -2 -30 -10 -37 -18 -7 -8 -13 -12 -13 -8 0 4 -16 0 -35 -8 -19 -8 -35 -11
-35 -8 0 4 -7 0 -17 -7 -9 -8 -19 -13 -22 -11 -3 1 -27 -1 -53 -4 -53 -7 -54
-5 37 -74 79 -59 185 -162 179 -172 -3 -4 2 -8 11 -8 8 0 20 -10 25 -22 5 -13
9 -19 9 -14 1 5 18 -13 38 -40 20 -27 41 -50 45 -52 4 -2 8 -10 8 -18 0 -8 5
-14 10 -14 6 0 10 -8 10 -17 -1 -17 -1 -17 -11 0 -14 23 -26 22 -39 -5 -11
-22 -11 -23 5 -3 15 19 17 19 26 3 6 -11 16 -15 26 -11 13 5 15 2 10 -11 -4
-10 -7 -19 -7 -21 0 -2 -10 -1 -22 1 -21 4 -22 4 -3 -5 14 -6 23 -5 31 5 6 7
14 11 17 7 4 -3 2 -12 -4 -19 -8 -9 -7 -18 1 -31 10 -16 10 -15 5 5 -7 26 3
29 20 5 11 -14 10 -20 -4 -31 -9 -7 -10 -11 -4 -7 7 3 21 1 30 -4 10 -6 15
-11 11 -11 -4 0 -1 -12 7 -27 8 -15 11 -31 8 -36 -3 -6 -1 -7 5 -3 14 8 36
-40 28 -61 -3 -8 -1 -11 4 -8 11 7 31 -35 23 -47 -2 -5 0 -8 5 -8 14 0 22 -38
8 -44 -6 -2 -3 -5 7 -5 9 -1 17 -4 17 -8 0 -3 -8 -16 -17 -27 -11 -13 -12 -16
-3 -9 18 13 33 0 38 -32 2 -11 6 -27 9 -35 13 -34 11 -66 -5 -85 -9 -11 -10
-14 -2 -7 17 14 34 16 25 2 -3 -5 -2 -10 2 -10 5 0 10 -10 10 -22 2 -28 10
-83 13 -83 1 0 3 -15 5 -33 2 -18 0 -30 -4 -28 -4 3 -8 -1 -8 -9 0 -8 4 -12 9
-9 4 3 8 2 9 -3 0 -4 2 -41 4 -81 2 -41 6 -76 9 -79 3 -4 1 -12 -6 -20 -9 -11
-14 -11 -31 4 -11 10 -17 13 -14 7 4 -7 0 -14 -8 -18 -8 -3 -15 -1 -15 4 0 8
-45 4 -62 -6 -4 -3 -8 0 -8 6 0 7 -7 8 -17 3 -22 -10 -54 -10 -70 0 -6 4 -14
3 -18 -2 -3 -6 -15 -7 -28 -2 -12 5 -31 5 -42 1 -11 -4 -28 -3 -37 2 -10 5
-18 5 -18 0 0 -5 -19 -7 -42 -5 -33 3 -40 1 -30 -9 7 -7 12 -20 12 -30 0 -10
4 -18 10 -18 5 0 12 -11 16 -25 3 -14 10 -25 14 -25 9 0 36 -61 32 -72 -1 -5
3 -8 9 -8 5 0 7 -5 4 -10 -4 -6 -1 -9 6 -8 7 2 17 -12 22 -29 5 -18 14 -33 18
-33 5 0 9 -7 9 -15 0 -8 5 -15 11 -15 7 0 9 -10 7 -24 -3 -15 -1 -23 6 -20 6
2 21 -14 33 -36 12 -22 18 -38 13 -35 -11 7 -7 -22 5 -32 4 -4 5 -2 1 5 -4 6
-3 12 2 12 11 0 26 -30 23 -47 -1 -6 4 -15 10 -19 8 -5 9 -3 4 6 -6 9 -4 11 4
6 7 -5 10 -14 7 -22 -3 -8 1 -17 9 -20 8 -4 12 -10 9 -15 -3 -5 -1 -9 4 -9 5
0 17 -15 25 -33 9 -18 28 -50 42 -71 21 -31 24 -41 13 -47 -10 -7 -8 -9 5 -9
10 0 16 -4 13 -9 -3 -5 1 -12 10 -15 8 -3 12 -10 9 -16 -3 -5 -1 -10 4 -10 6
0 11 -7 11 -15 0 -8 5 -15 10 -15 6 0 10 -6 10 -14 0 -7 6 -19 14 -26 8 -6 12
-19 9 -27 -5 -12 -3 -14 7 -8 10 6 12 3 8 -13 -4 -12 -1 -20 4 -19 6 1 13 -4
16 -12 3 -10 0 -12 -12 -8 -11 4 -15 3 -11 -4 4 -6 13 -8 21 -5 7 3 18 -4 24
-14 6 -12 7 -20 1 -20 -5 0 -11 6 -14 13 -3 6 -5 3 -4 -9 1 -16 6 -20 26 -17
22 3 23 2 7 -5 -19 -8 -19 -9 2 -14 14 -4 22 -14 22 -28 0 -11 4 -19 9 -16 4
3 16 -12 26 -34 10 -22 24 -45 32 -51 11 -9 11 -15 1 -28 -7 -9 -9 -13 -4 -9
10 8 36 -14 29 -24 -2 -5 1 -8 7 -8 6 0 8 -4 5 -10 -3 -5 -1 -10 5 -10 15 0
42 -68 34 -83 -4 -7 -4 -9 1 -5 10 9 47 -31 39 -43 -3 -5 0 -9 5 -9 6 0 11 -5
11 -11 0 -7 8 -18 18 -26 11 -10 12 -12 2 -8 -10 4 -9 2 3 -8 9 -8 17 -22 17
-31 0 -9 5 -16 10 -16 6 0 10 -6 10 -14 0 -8 4 -18 10 -21 5 -3 7 0 4 8 -3 8
2 20 11 27 8 7 15 16 15 21 0 11 63 113 73 117 4 2 7 9 7 16 0 7 7 21 16 32 8
10 13 14 10 8 -3 -6 1 -11 9 -11 10 0 11 5 5 17 -7 13 -2 30 18 61 15 24 33
56 41 72 8 15 21 27 30 27 14 0 14 2 1 10 -14 9 -7 14 13 11 5 -1 6 3 3 7 -7
12 31 92 44 92 6 0 9 3 8 8 -3 14 14 42 23 36 5 -3 6 3 2 12 -5 13 -3 16 10
11 9 -3 19 -2 22 4 4 5 3 9 -2 8 -20 -3 -23 2 -13 22 10 17 14 18 28 7 16 -12
16 -11 2 6 -12 15 -12 20 -2 23 6 3 10 8 7 13 -3 5 2 16 11 24 8 9 13 16 9 16
-4 0 1 7 9 16 9 8 16 21 16 28 0 7 12 26 28 41 15 16 21 25 14 21 -11 -7 -11
-4 0 13 7 12 16 21 21 21 4 0 6 4 3 9 -3 4 2 17 10 27 9 10 12 13 8 5 -5 -9
-3 -12 5 -7 6 4 11 13 10 19 -2 20 13 57 23 57 5 0 6 5 3 10 -3 6 -2 10 4 10
6 0 13 11 17 25 3 14 10 23 14 20 5 -3 11 -1 15 5 3 5 0 10 -7 10 -7 0 -2 10
12 21 14 11 20 18 13 15 -7 -4 4 22 25 58 20 35 40 62 44 60 4 -3 5 2 2 10 -4
10 -1 16 7 16 7 0 10 3 6 6 -3 4 1 13 9 21 8 8 12 19 9 24 -4 5 -2 9 3 9 6 0
14 13 20 28 5 16 16 35 23 43 17 17 53 91 51 102 -1 4 2 7 7 7 5 0 11 7 15 15
4 11 -1 15 -22 15 -15 0 -34 0 -42 0 -8 0 -26 -1 -40 -3 -14 -1 -28 1 -31 6
-4 5 -12 6 -19 2 -17 -11 -109 -12 -103 -1 4 5 1 6 -5 2 -18 -11 -82 -13 -88
-4 -3 5 -12 4 -20 -3 -9 -7 -19 -8 -26 -2 -15 11 -28 11 -45 0 -8 -5 -13 -4
-13 3 0 7 -6 8 -17 2 -18 -10 -55 -2 -54 11 1 4 1 8 0 10 -1 1 -3 18 -5 37 -6
69 -14 122 -19 130 -3 5 1 11 7 13 10 4 10 6 1 6 -7 1 -13 11 -13 24 0 18 2
19 10 7 5 -8 10 -10 10 -4 0 6 -7 17 -15 24 -9 7 -14 19 -11 26 3 7 1 25 -4
41 -8 24 -45 176 -54 223 -3 16 -6 24 -25 80 -15 42 -22 71 -23 88 -1 6 -5 12
-10 12 -4 0 -7 3 -6 8 1 4 -6 24 -15 46 -9 21 -17 40 -17 42 0 2 -11 28 -25
59 -14 31 -23 61 -19 67 4 7 3 8 -4 4 -7 -4 -12 -2 -12 4 0 6 -11 27 -25 47
-13 20 -22 40 -19 45 3 4 1 8 -4 8 -5 0 -15 15 -23 33 -7 17 -16 34 -20 37 -3
3 -14 21 -24 40 -10 18 -23 40 -29 47 -30 34 -36 43 -29 43 4 0 0 5 -9 11 -10
5 -18 17 -18 24 0 8 -4 15 -10 15 -5 0 -10 5 -10 10 0 6 -8 18 -17 29 -31 32
-68 84 -66 91 1 4 -9 13 -22 20 -14 7 -25 17 -25 21 0 13 -172 179 -184 179
-6 -1 -36 -19 -66 -40z"/>
<path d="M4790 3881 c0 -5 7 -15 17 -22 15 -13 15 -12 4 9 -12 23 -21 28 -21
13z"/>
<path d="M4920 3880 c8 -5 20 -10 25 -10 6 0 3 5 -5 10 -8 5 -19 10 -25 10 -5
0 -3 -5 5 -10z"/>
<path d="M4476 3859 c2 -4 -2 -10 -8 -12 -8 -4 -7 -6 3 -6 9 -1 19 5 22 12 3
8 -1 14 -9 14 -7 0 -11 -4 -8 -8z"/>
<path d="M4596 3845 c-9 -26 -7 -32 5 -12 6 10 9 21 6 23 -2 3 -7 -2 -11 -11z"/>
<path d="M4417 3825 c-11 -16 -13 -23 -5 -20 15 6 42 45 31 45 -5 0 -16 -12
-26 -25z"/>
<path d="M4630 3836 c7 -7 13 -7 20 0 6 6 3 10 -10 10 -13 0 -16 -4 -10 -10z"/>
<path d="M4705 3840 c-3 -6 1 -7 9 -4 18 7 21 14 7 14 -6 0 -13 -4 -16 -10z"/>
<path d="M4887 3837 c3 -4 8 -6 11 -3 3 3 10 1 17 -4 8 -7 12 -6 12 3 0 7 -11
13 -23 13 -12 0 -20 -4 -17 -9z"/>
<path d="M4277 3833 c-4 -3 -7 -11 -7 -17 0 -6 5 -5 12 2 6 6 9 14 7 17 -3 3
-9 2 -12 -2z"/>
<path d="M4340 3820 c0 -5 5 -10 11 -10 5 0 7 5 4 10 -3 6 -8 10 -11 10 -2 0
-4 -4 -4 -10z"/>
<path d="M4455 3820 c3 -5 11 -10 16 -10 6 0 7 5 4 10 -3 6 -11 10 -16 10 -6
0 -7 -4 -4 -10z"/>
<path d="M4656 3822 c-2 -4 -1 -14 3 -21 6 -9 11 -10 15 -2 4 6 2 11 -4 11 -6
0 -8 5 -5 10 3 6 4 10 1 10 -3 0 -7 -4 -10 -8z"/>
<path d="M4820 3825 c0 -2 6 -8 13 -14 10 -8 14 -7 14 2 0 8 -6 14 -14 14 -7
0 -13 -1 -13 -2z"/>
<path d="M5016 3818 c3 -4 11 -5 19 -1 21 7 19 12 -4 10 -11 0 -18 -5 -15 -9z"/>
<path d="M4142 3813 c-6 -2 -10 -9 -6 -14 3 -5 -1 -9 -9 -9 -31 0 -27 -30 6
-45 23 -12 27 -12 15 -2 -10 8 -15 17 -11 21 4 4 -1 4 -12 0 -16 -6 -14 -1 8
19 15 14 27 29 27 32 0 6 0 6 -18 -2z"/>
<path d="M4178 3809 c-20 -11 -14 -34 10 -44 13 -5 13 -2 -3 15 -10 11 -13 20
-8 20 6 0 16 -7 23 -15 7 -8 16 -12 21 -9 27 16 -15 48 -43 33z m42 -21 c0 -6
-6 -5 -15 2 -8 7 -15 14 -15 16 0 2 7 1 15 -2 8 -4 15 -11 15 -16z"/>
<path d="M4375 3811 c3 -5 -2 -12 -10 -14 -12 -4 -12 -5 1 -3 19 1 32 26 14
26 -6 0 -9 -4 -5 -9z"/>
<path d="M4726 3805 c-11 -8 -15 -15 -9 -15 6 0 16 7 23 15 16 19 11 19 -14 0z"/>
<path d="M4773 3806 c0 -15 22 -15 34 0 4 5 4 6 -1 2 -5 -4 -14 -3 -21 2 -8 7
-12 5 -12 -4z"/>
<path d="M4431 3800 c-9 -5 -4 -7 13 -7 29 0 32 2 13 10 -8 3 -20 2 -26 -3z"/>
<path d="M4506 3802 c-2 -4 4 -8 14 -8 10 0 16 4 14 8 -3 4 -9 8 -14 8 -5 0
-11 -4 -14 -8z"/>
<path d="M4573 3803 c9 -8 47 -11 47 -4 0 5 -11 9 -25 9 -14 0 -24 -2 -22 -5z"/>
<path d="M4237 3777 c-3 -8 1 -14 8 -14 7 0 11 6 8 14 -3 7 -6 13 -8 13 -2 0
-5 -6 -8 -13z"/>
<path d="M4390 3780 c0 -5 5 -10 10 -10 6 0 10 5 10 10 0 6 -4 10 -10 10 -5 0
-10 -4 -10 -10z"/>
<path d="M4556 3781 c-18 -7 -18 -8 -3 -14 9 -3 17 -2 17 4 0 6 5 7 12 3 7 -4
8 -3 4 4 -4 7 -8 12 -9 11 -1 0 -11 -4 -21 -8z"/>
<path d="M3870 3765 c0 -8 4 -15 8 -15 5 0 9 7 9 15 0 8 -4 15 -9 15 -4 0 -8
-7 -8 -15z"/>
<path d="M4031 3770 c0 -8 4 -22 9 -30 12 -18 12 -2 0 25 -6 13 -9 15 -9 5z"/>
<path d="M4150 3771 c0 -10 19 -25 25 -20 1 2 -3 10 -11 17 -8 7 -14 8 -14 3z"/>
<path d="M4430 3770 c-9 -6 -10 -10 -3 -10 6 0 15 5 18 10 8 12 4 12 -15 0z"/>
<path d="M4466 3764 c-6 -15 -4 -15 11 -3 10 7 20 15 22 16 2 2 -3 3 -11 3 -9
0 -19 -7 -22 -16z"/>
<path d="M4506 3765 c-18 -14 -18 -14 1 -12 11 0 20 7 20 14 0 7 -1 13 -1 13
-1 0 -9 -7 -20 -15z"/>
<path d="M4794 3769 c-3 -6 -2 -15 3 -20 5 -5 9 -1 9 11 0 23 -2 24 -12 9z"/>
<path d="M3817 3764 c-3 -5 3 -16 15 -23 11 -7 17 -8 13 -2 -3 6 -1 11 4 11 6
0 11 5 11 11 0 8 -4 8 -14 0 -11 -9 -15 -9 -18 1 -3 7 -7 8 -11 2z"/>
<path d="M4354 3758 c-4 -6 -3 -8 4 -4 5 3 13 0 15 -6 3 -8 6 -6 6 5 1 19 -14
23 -25 5z"/>
<path d="M4634 3744 c7 -38 14 -40 12 -5 0 17 -4 31 -9 31 -4 0 -5 -12 -3 -26z"/>
<path d="M4760 3760 c-9 -6 -10 -10 -3 -10 6 0 15 5 18 10 8 12 4 12 -15 0z"/>
<path d="M4211 3753 c-1 -18 13 -23 29 -11 12 8 12 9 -2 5 -9 -3 -19 -1 -22 6
-3 9 -5 9 -5 0z"/>
<path d="M4276 3747 c3 -10 9 -15 12 -12 3 3 0 11 -7 18 -10 9 -11 8 -5 -6z"/>
<path d="M4591 3747 c-8 -10 -7 -14 2 -14 8 0 14 6 14 14 0 7 -1 13 -2 13 -2
0 -8 -6 -14 -13z"/>
<path d="M3998 3739 c-10 -5 -18 -15 -18 -20 0 -6 7 -3 16 5 20 20 28 20 20 0
-4 -10 -2 -13 6 -8 8 5 9 2 5 -10 -4 -10 -3 -15 3 -11 13 8 13 18 -2 38 -10
12 -17 14 -30 6z"/>
<path d="M4076 3735 c-11 -8 -15 -15 -10 -15 6 0 16 6 23 13 11 10 13 9 8 -6
-5 -12 -3 -16 5 -11 7 5 9 2 6 -7 -4 -9 1 -15 12 -15 16 0 16 3 -3 28 -11 15
-21 28 -21 28 -1 0 -10 -7 -20 -15z"/>
<path d="M4192 3740 c3 -8 2 -22 -3 -30 -5 -11 -2 -16 11 -16 10 0 16 5 12 11
-4 5 -7 16 -8 23 -2 8 -6 17 -10 20 -4 4 -4 0 -2 -8z"/>
<path d="M4434 3721 c0 -16 3 -27 6 -25 7 8 7 54 0 54 -4 0 -7 -13 -6 -29z"/>
<path d="M4910 3740 c0 -5 5 -10 11 -10 5 0 7 5 4 10 -3 6 -8 10 -11 10 -2 0
-4 -4 -4 -10z"/>
<path d="M3760 3730 c-7 -4 -20 -6 -28 -3 -14 6 0 -15 35 -52 7 -7 9 -16 5
-20 -4 -5 -1 -5 6 -1 10 6 10 11 1 22 -8 10 -8 14 0 14 6 0 11 5 11 11 0 8 -4
9 -13 0 -14 -11 -27 -5 -27 11 0 5 5 6 10 3 6 -3 10 -2 10 3 0 5 11 10 25 10
13 0 22 -4 19 -9 -3 -5 0 -9 6 -9 7 0 10 6 8 12 -5 15 -49 20 -68 8z"/>
<path d="M4261 3733 c-1 -6 -4 -20 -7 -30 -5 -17 -5 -17 6 0 6 10 9 23 6 30
-3 9 -5 9 -5 0z"/>
<path d="M4330 3730 c-9 -6 -10 -10 -3 -10 6 0 15 5 18 10 8 12 4 12 -15 0z"/>
<path d="M4353 3712 c-8 -14 -8 -19 1 -19 7 0 13 9 13 19 1 10 1 18 0 18 -1 0
-7 -8 -14 -18z"/>
<path d="M4753 3715 c0 -8 4 -12 9 -9 5 3 6 10 3 15 -9 13 -12 11 -12 -6z"/>
<path d="M3839 3710 c-5 -28 -3 -33 13 -36 10 -1 20 2 23 6 3 5 -4 7 -15 5
-17 -3 -20 0 -15 15 4 11 4 20 1 20 -3 0 -7 -4 -7 -10z"/>
<path d="M3910 3711 c0 -14 29 -21 36 -9 4 7 3 8 -4 4 -7 -4 -12 -2 -12 3 0 6
-4 11 -10 11 -5 0 -10 -4 -10 -9z"/>
<path d="M3700 3700 c0 -5 7 -7 15 -4 8 4 15 8 15 10 0 2 -7 4 -15 4 -8 0 -15
-4 -15 -10z"/>
<path d="M3801 3684 c0 -11 3 -14 6 -6 3 7 2 16 -1 19 -3 4 -6 -2 -5 -13z"/>
<path d="M3622 3681 c-11 -6 -10 -10 4 -15 9 -3 19 -4 22 -1 3 3 0 5 -7 5 -7
0 -9 5 -6 10 7 12 4 12 -13 1z"/>
<path d="M3890 3686 c0 -2 7 -7 16 -10 8 -3 12 -2 9 4 -6 10 -25 14 -25 6z"/>
<path d="M3940 3680 c-12 -7 -10 -9 7 -7 12 0 19 5 17 9 -6 10 -6 10 -24 -2z"/>
<path d="M3985 3680 c-3 -6 1 -7 9 -4 18 7 21 14 7 14 -6 0 -13 -4 -16 -10z"/>
<path d="M3815 3661 c-6 -11 13 -26 22 -17 4 3 1 6 -6 6 -7 0 -9 5 -6 10 3 6
4 10 1 10 -3 0 -7 -4 -11 -9z"/>
<path d="M3885 3662 c-5 -4 -11 -17 -11 -30 -1 -12 1 -21 3 -18 3 2 5 8 5 13
0 4 4 16 9 26 11 19 9 21 -6 9z"/>
<path d="M3999 3668 c-5 -18 -6 -38 -1 -34 7 8 12 36 6 36 -2 0 -4 -1 -5 -2z"/>
<path d="M4020 3665 c0 -2 6 -8 13 -14 10 -8 14 -7 14 2 0 8 -6 14 -14 14 -7
0 -13 -1 -13 -2z"/>
<path d="M4455 3661 c-3 -5 -2 -12 3 -15 5 -3 9 1 9 9 0 17 -3 19 -12 6z"/>
<path d="M3795 3643 c3 -3 0 -11 -5 -18 -7 -8 -5 -12 4 -12 14 0 16 22 3 32
-4 3 -5 2 -2 -2z"/>
<path d="M3959 3633 c-13 -16 -12 -17 4 -4 16 13 21 21 13 21 -2 0 -10 -8 -17
-17z"/>
<path d="M4090 3639 c0 -5 5 -7 10 -4 6 3 10 8 10 11 0 2 -4 4 -10 4 -5 0 -10
-5 -10 -11z"/>
<path d="M3710 3630 c8 -5 20 -10 25 -10 6 0 3 5 -5 10 -8 5 -19 10 -25 10 -5
0 -3 -5 5 -10z"/>
<path d="M3500 3620 c0 -5 5 -9 11 -7 6 1 14 -4 16 -11 3 -6 -1 -10 -9 -9 -7
2 -10 2 -5 0 4 -3 4 -10 0 -16 -4 -7 2 -5 13 3 10 8 21 16 23 17 6 4 -31 32
-41 33 -5 0 -8 -4 -8 -10z"/>
<path d="M3607 3624 c7 -3 9 -13 6 -22 -4 -14 -3 -14 5 -2 12 16 7 30 -11 29
-9 0 -9 -2 0 -5z"/>
<path d="M3754 3616 c1 -8 5 -18 8 -22 4 -3 5 1 4 10 -1 8 -5 18 -8 22 -4 3
-5 -1 -4 -10z"/>
<path d="M3826 3622 c-3 -5 1 -9 9 -9 8 0 15 4 15 9 0 4 -4 8 -9 8 -6 0 -12
-4 -15 -8z"/>
<path d="M4113 3605 c0 -8 4 -12 9 -9 5 3 6 10 3 15 -9 13 -12 11 -12 -6z"/>
<path d="M3580 3600 c-9 -6 -10 -10 -3 -10 6 0 15 5 18 10 8 12 4 12 -15 0z"/>
<path d="M3631 3592 c-7 -14 -6 -19 4 -19 8 0 11 7 7 16 -5 14 -4 14 11 2 15
-12 17 -12 11 3 -8 21 -21 20 -33 -2z"/>
<path d="M3715 3601 c-3 -5 -2 -12 3 -15 5 -3 9 1 9 9 0 17 -3 19 -12 6z"/>
<path d="M3930 3585 c0 -7 30 -13 34 -7 3 4 -4 9 -15 9 -10 1 -19 0 -19 -2z"/>
<path d="M3490 3565 c0 -8 4 -15 10 -15 5 0 7 7 4 15 -4 8 -8 15 -10 15 -2 0
-4 -7 -4 -15z"/>
<path d="M3553 3565 c0 -8 4 -12 9 -9 4 3 8 9 8 15 0 5 -4 9 -8 9 -5 0 -9 -7
-9 -15z"/>
<path d="M3593 3573 c4 -3 -1 -12 -11 -20 -15 -13 -15 -13 6 -3 19 9 23 30 5
30 -4 0 -3 -3 0 -7z"/>
<path d="M3460 3555 c-10 -12 -9 -16 4 -21 9 -4 20 -4 23 0 4 3 -2 6 -12 6
-14 0 -15 3 -5 15 7 8 10 15 7 15 -2 0 -10 -7 -17 -15z"/>
<path d="M3713 3545 c0 -8 4 -12 9 -9 5 3 6 10 3 15 -9 13 -12 11 -12 -6z"/>
<path d="M3384 3536 c5 -14 2 -17 -11 -12 -15 5 -15 4 1 -9 11 -8 26 -15 33
-15 7 0 10 -7 7 -17 -5 -15 -4 -15 4 -3 13 17 6 30 -16 30 -13 0 -12 5 8 20
14 11 20 20 13 20 -6 0 -15 -5 -19 -11 -4 -8 -9 -7 -16 2 -7 11 -8 9 -4 -5z"/>
<path d="M3600 3540 c-9 -6 -10 -10 -3 -10 6 0 15 5 18 10 8 12 4 12 -15 0z"/>
<path d="M3554 3531 c4 -6 3 -18 -3 -25 -8 -9 -7 -13 2 -13 16 0 20 34 5 43
-7 4 -8 2 -4 -5z"/>
<path d="M3430 3520 c0 -5 5 -10 10 -10 6 0 10 5 10 10 0 6 -4 10 -10 10 -5 0
-10 -4 -10 -10z"/>
<path d="M3520 3520 c-9 -6 -10 -10 -3 -10 6 0 15 5 18 10 8 12 4 12 -15 0z"/>
<path d="M3636 3518 c3 -5 10 -6 15 -3 13 9 11 12 -6 12 -8 0 -12 -4 -9 -9z"/>
<path d="M3350 3501 c0 -5 5 -13 10 -16 6 -3 10 -2 10 4 0 5 -4 13 -10 16 -5
3 -10 2 -10 -4z"/>
<path d="M3476 3494 c-23 -23 -20 -30 4 -9 11 10 20 20 20 22 0 7 -9 2 -24
-13z"/>
<path d="M3330 3492 c0 -8 -5 -10 -12 -6 -7 4 -5 -2 6 -14 10 -12 27 -24 37
-27 11 -4 16 -11 13 -18 -4 -7 -3 -8 1 -4 13 12 15 36 3 44 -7 4 -8 1 -3 -7 6
-10 4 -12 -9 -7 -10 4 -20 7 -22 7 -3 0 -3 4 0 8 2 4 1 14 -5 22 -6 11 -9 12
-9 2z"/>
<path d="M3278 3451 c-13 -13 -14 -18 -4 -18 7 0 18 9 25 19 14 23 2 22 -21
-1z"/>
<path d="M4806 3458 c3 -5 10 -6 15 -3 13 9 11 12 -6 12 -8 0 -12 -4 -9 -9z"/>
<path d="M3455 3449 c-4 -6 -5 -12 -2 -15 2 -3 7 2 10 11 7 17 1 20 -8 4z"/>
<path d="M3295 3420 c-3 -5 -3 -10 2 -10 4 -1 -3 -7 -16 -14 -14 -8 -26 -21
-27 -30 -1 -9 2 -13 9 -9 6 4 8 0 5 -9 -4 -9 0 -15 8 -15 12 0 11 5 -2 25 -15
23 -15 25 0 19 11 -5 15 -3 10 5 -5 7 -2 9 8 5 11 -4 15 0 13 11 -1 10 7 20
19 24 21 6 21 6 -1 7 -12 1 -25 -3 -28 -9z"/>
<path d="M3396 3415 c-3 -9 -10 -14 -15 -10 -5 3 -12 1 -15 -4 -8 -13 22 -7
36 7 6 6 9 14 6 17 -3 3 -8 -1 -12 -10z"/>
<path d="M3325 3400 c-3 -6 1 -7 9 -4 18 7 21 14 7 14 -6 0 -13 -4 -16 -10z"/>
<path d="M3413 3385 c0 -8 4 -12 9 -9 5 3 6 10 3 15 -9 13 -12 11 -12 -6z"/>
<path d="M4810 3376 c0 -2 8 -10 18 -17 15 -13 16 -12 3 4 -13 16 -21 21 -21
13z"/>
<path d="M3214 3359 c-3 -6 -2 -15 4 -21 6 -6 12 -6 17 3 5 8 4 10 -3 5 -7 -4
-12 -3 -12 3 0 5 6 12 13 14 9 4 9 6 0 6 -6 1 -15 -4 -19 -10z"/>
<path d="M4946 3343 c-6 -14 -5 -15 5 -6 7 7 10 15 7 18 -3 3 -9 -2 -12 -12z"/>
<path d="M3370 3339 c0 -5 5 -7 10 -4 6 3 10 8 10 11 0 2 -4 4 -10 4 -5 0 -10
-5 -10 -11z"/>
<path d="M4875 3341 c-3 -5 -2 -12 3 -15 5 -3 9 1 9 9 0 17 -3 19 -12 6z"/>
<path d="M4900 3346 c0 -2 8 -10 18 -17 15 -13 16 -12 3 4 -13 16 -21 21 -21
13z"/>
<path d="M3190 3318 c0 -6 3 -8 7 -5 3 4 12 -1 20 -11 13 -15 13 -15 3 6 -11
23 -30 30 -30 10z"/>
<path d="M3235 3320 c-3 -5 -1 -10 4 -10 6 0 11 5 11 10 0 6 -2 10 -4 10 -3 0
-8 -4 -11 -10z"/>
<path d="M3316 3313 c-6 -14 -5 -15 5 -6 7 7 10 15 7 18 -3 3 -9 -2 -12 -12z"/>
<path d="M3156 3299 c3 -5 9 -7 14 -4 5 3 11 -5 13 -17 5 -22 5 -22 4 1 -1 15
-9 25 -20 27 -9 1 -15 -2 -11 -7z"/>
<path d="M4948 3303 c10 -4 9 -10 -5 -26 l-18 -21 26 20 c25 18 22 35 -6 33
-5 0 -4 -3 3 -6z"/>
<path d="M3257 3293 c-10 -9 -9 -23 1 -23 5 0 9 7 9 15 0 17 -1 18 -10 8z"/>
<path d="M4995 3291 c4 -8 2 -17 -6 -22 -9 -6 -10 -9 -2 -9 19 0 27 21 13 33
-10 9 -11 9 -5 -2z"/>
<path d="M4906 3278 c3 -5 10 -6 15 -3 13 9 11 12 -6 12 -8 0 -12 -4 -9 -9z"/>
<path d="M3156 3253 c-6 -14 -5 -15 5 -6 7 7 10 15 7 18 -3 3 -9 -2 -12 -12z"/>
<path d="M3220 3266 c0 -2 8 -10 18 -17 15 -13 16 -12 3 4 -13 16 -21 21 -21
13z"/>
<path d="M5015 3260 c-3 -5 -1 -10 4 -10 6 0 11 5 11 10 0 6 -2 10 -4 10 -3 0
-8 -4 -11 -10z"/>
<path d="M4830 3256 c0 -2 8 -10 18 -17 15 -13 16 -12 3 4 -13 16 -21 21 -21
13z"/>
<path d="M3190 3235 c5 -7 8 -14 5 -17 -3 -3 3 -11 12 -19 16 -12 17 -12 7 1
-6 8 -10 22 -9 31 2 9 -3 16 -11 16 -9 0 -11 -4 -4 -12z"/>
<path d="M4950 3245 c0 -7 30 -13 34 -7 3 4 -4 9 -15 9 -10 1 -19 0 -19 -2z"/>
<path d="M3108 3233 c6 -2 10 -9 7 -14 -4 -5 1 -6 10 -2 13 5 14 7 3 14 -7 5
-17 8 -23 8 -5 0 -4 -3 3 -6z"/>
<path d="M5030 3230 c8 -5 20 -10 25 -10 6 0 3 5 -5 10 -8 5 -19 10 -25 10 -5
0 -3 -5 5 -10z"/>
<path d="M4946 3222 c-3 -5 1 -9 9 -9 8 0 12 4 9 9 -3 4 -7 8 -9 8 -2 0 -6 -4
-9 -8z"/>
<path d="M3090 3210 c0 -5 9 -14 20 -20 11 -6 20 -9 20 -8 0 2 -9 11 -20 21
-11 9 -20 13 -20 7z"/>
<path d="M3135 3200 c3 -5 8 -10 11 -10 2 0 4 5 4 10 0 6 -5 10 -11 10 -5 0
-7 -4 -4 -10z"/>
<path d="M3260 3200 c-9 -6 -10 -10 -3 -10 6 0 15 5 18 10 8 12 4 12 -15 0z"/>
<path d="M4833 3195 c0 -8 4 -12 9 -9 5 3 6 10 3 15 -9 13 -12 11 -12 -6z"/>
<path d="M3070 3180 c0 -5 5 -10 10 -10 6 0 10 5 10 10 0 6 -4 10 -10 10 -5 0
-10 -4 -10 -10z"/>
<path d="M5000 3160 c8 -5 20 -10 25 -10 6 0 3 5 -5 10 -8 5 -19 10 -25 10 -5
0 -3 -5 5 -10z"/>
<path d="M3113 3145 c0 -7 6 -11 14 -8 7 3 13 6 13 8 0 2 -6 5 -13 8 -8 3 -14
-1 -14 -8z"/>
<path d="M4934 3142 c4 -3 14 -7 22 -8 9 -1 13 0 10 4 -4 3 -14 7 -22 8 -9 1
-13 0 -10 -4z"/>
<path d="M3077 3133 c-10 -10 -8 -23 4 -23 5 0 8 4 5 9 -4 5 0 12 6 14 7 3 8
6 2 6 -6 1 -14 -2 -17 -6z"/>
<path d="M3186 3122 c-2 -4 4 -8 14 -8 10 0 16 4 14 8 -3 4 -9 8 -14 8 -5 0
-11 -4 -14 -8z"/>
<path d="M5053 3108 c-2 -18 0 -20 7 -8 12 18 13 30 2 30 -4 0 -9 -10 -9 -22z"/>
<path d="M5096 3095 c4 -11 2 -14 -9 -9 -8 3 -17 1 -21 -4 -3 -5 5 -8 16 -7
24 2 35 19 19 30 -7 3 -8 0 -5 -10z"/>
<path d="M3025 3083 c-18 -14 -18 -15 -1 -9 10 3 26 1 35 -6 14 -12 15 -11 1
7 -8 11 -14 21 -15 22 0 1 -9 -6 -20 -14z"/>
<path d="M3147 3079 c7 -7 15 -10 18 -7 3 3 -2 9 -12 12 -14 6 -15 5 -6 -5z"/>
<path d="M3001 3044 c0 -11 3 -14 6 -6 3 7 2 16 -1 19 -3 4 -6 -2 -5 -13z"/>
<path d="M5130 3049 c0 -5 -4 -8 -9 -5 -5 3 -15 -2 -22 -12 -11 -14 -11 -15 1
-5 9 8 19 9 31 3 14 -8 16 -6 12 10 -6 21 -13 27 -13 9z"/>
<path d="M3090 3019 c0 -5 5 -7 10 -4 6 3 10 8 10 11 0 2 -4 4 -10 4 -5 0 -10
-5 -10 -11z"/>
<path d="M2995 3004 c-16 -8 -22 -12 -11 -9 10 3 24 1 30 -4 8 -7 12 -4 12 10
0 10 0 19 -1 19 0 -1 -13 -8 -30 -16z"/>
<path d="M5096 3002 c-3 -5 1 -9 9 -9 8 0 12 4 9 9 -3 4 -7 8 -9 8 -2 0 -6 -4
-9 -8z"/>
<path d="M5139 2993 c-13 -16 -12 -17 3 -5 9 8 23 10 29 6 8 -4 9 -3 5 4 -10
17 -21 15 -37 -5z"/>
<path d="M3095 2981 c-3 -5 -2 -12 3 -15 5 -3 9 1 9 9 0 17 -3 19 -12 6z"/>
<path d="M2993 2966 c0 -15 22 -15 34 0 4 5 4 6 -1 2 -5 -4 -14 -3 -21 2 -8 7
-12 5 -12 -4z"/>
<path d="M5188 2973 c6 -2 9 -10 6 -15 -4 -7 -2 -8 4 -4 18 11 14 26 -5 25
-11 0 -13 -3 -5 -6z"/>
<path d="M5150 2962 c0 -5 7 -9 15 -9 8 0 12 4 9 9 -3 4 -9 8 -15 8 -5 0 -9
-4 -9 -8z"/>
<path d="M5095 2940 c-3 -5 -1 -10 4 -10 6 0 11 5 11 10 0 6 -2 10 -4 10 -3 0
-8 -4 -11 -10z"/>
<path d="M5155 2931 c-3 -5 -2 -12 3 -15 5 -3 9 1 9 9 0 17 -3 19 -12 6z"/>
<path d="M3106 2918 c3 -5 10 -6 15 -3 13 9 11 12 -6 12 -8 0 -12 -4 -9 -9z"/>
<path d="M5130 2921 c0 -6 4 -13 10 -16 6 -3 7 1 4 9 -7 18 -14 21 -14 7z"/>
<path d="M5196 2915 c-9 -26 -7 -32 5 -12 6 10 9 21 6 23 -2 3 -7 -2 -11 -11z"/>
<path d="M2953 2889 c-2 -23 3 -25 10 -4 4 8 3 16 -1 19 -4 3 -9 -4 -9 -15z"/>
<path d="M5226 2897 c3 -10 9 -15 12 -12 3 3 0 11 -7 18 -10 9 -11 8 -5 -6z"/>
<path d="M2996 2878 c3 -5 10 -6 15 -3 13 9 11 12 -6 12 -8 0 -12 -4 -9 -9z"/>
<path d="M5200 2875 c-7 -8 -9 -15 -5 -15 4 0 1 -8 -6 -17 -13 -16 -12 -17 4
-4 9 8 15 16 12 19 -3 3 0 11 6 19 6 7 9 13 6 13 -2 0 -10 -7 -17 -15z"/>
<path d="M2916 2862 c-3 -5 1 -9 9 -9 8 0 12 4 9 9 -3 4 -7 8 -9 8 -2 0 -6 -4
-9 -8z"/>
<path d="M5135 2860 c3 -5 8 -10 11 -10 2 0 4 5 4 10 0 6 -5 10 -11 10 -5 0
-7 -4 -4 -10z"/>
<path d="M5225 2820 c-3 -6 1 -7 9 -4 18 7 21 14 7 14 -6 0 -13 -4 -16 -10z"/>
<path d="M2892 2801 c-11 -7 -11 -9 0 -14 9 -3 15 1 15 9 0 8 -1 14 -1 14 -1
0 -7 -4 -14 -9z"/>
<path d="M5245 2800 c-3 -6 1 -7 9 -4 18 7 21 14 7 14 -6 0 -13 -4 -16 -10z"/>
<path d="M2896 2753 c-6 -14 -5 -15 5 -6 7 7 10 15 7 18 -3 3 -9 -2 -12 -12z"/>
<path d="M5175 2760 c-3 -5 -1 -10 4 -10 6 0 11 5 11 10 0 6 -2 10 -4 10 -3 0
-8 -4 -11 -10z"/>
<path d="M5233 2747 c0 -8 6 -14 14 -14 9 0 10 4 2 14 -6 7 -12 13 -14 13 -1
0 -2 -6 -2 -13z"/>
<path d="M5278 2733 c7 -3 16 -2 19 1 4 3 -2 6 -13 5 -11 0 -14 -3 -6 -6z"/>
<path d="M2885 2719 c-3 -4 2 -6 10 -5 21 3 28 13 10 13 -9 0 -18 -4 -20 -8z"/>
<path d="M2866 2682 c-2 -4 4 -8 14 -8 10 0 16 4 14 8 -3 4 -9 8 -14 8 -5 0
-11 -4 -14 -8z"/>
<path d="M5259 2673 c-13 -16 -12 -17 4 -4 9 7 17 15 17 17 0 8 -8 3 -21 -13z"/>
<path d="M2935 2660 c-3 -5 -1 -10 4 -10 6 0 11 5 11 10 0 6 -2 10 -4 10 -3 0
-8 -4 -11 -10z"/>
<path d="M2895 2649 c-4 -6 -5 -12 -2 -15 2 -3 7 2 10 11 7 17 1 20 -8 4z"/>
<path d="M5289 2643 c-13 -16 -12 -17 4 -4 16 13 21 21 13 21 -2 0 -10 -8 -17
-17z"/>
<path d="M5195 2641 c-3 -5 -2 -12 3 -15 5 -3 9 1 9 9 0 17 -3 19 -12 6z"/>
<path d="M2850 2617 c0 -2 6 -10 14 -16 11 -9 16 -9 22 1 4 7 4 10 -1 6 -4 -4
-14 -3 -22 3 -7 6 -13 9 -13 6z"/>
<path d="M2975 2561 c-3 -5 -2 -12 3 -15 5 -3 9 1 9 9 0 17 -3 19 -12 6z"/>
<path d="M2870 2545 c0 -7 30 -13 34 -7 3 4 -4 9 -15 9 -10 1 -19 0 -19 -2z"/>
<path d="M5246 2538 c3 -5 10 -6 15 -3 13 9 11 12 -6 12 -8 0 -12 -4 -9 -9z"/>
<path d="M2873 2505 c0 -8 4 -12 9 -9 5 3 6 10 3 15 -9 13 -12 11 -12 -6z"/>
<path d="M5334 2486 c1 -8 5 -18 8 -22 4 -3 5 1 4 10 -1 8 -5 18 -8 22 -4 3
-5 -1 -4 -10z"/>
<path d="M5295 2460 c-3 -5 -1 -10 4 -10 6 0 11 5 11 10 0 6 -2 10 -4 10 -3 0
-8 -4 -11 -10z"/>
<path d="M2875 2420 c3 -5 8 -10 11 -10 2 0 4 5 4 10 0 6 -5 10 -11 10 -5 0
-7 -4 -4 -10z"/>
<path d="M5295 2420 c3 -5 8 -10 11 -10 2 0 4 5 4 10 0 6 -5 10 -11 10 -5 0
-7 -4 -4 -10z"/>
<path d="M2040 2380 c-12 -7 -10 -9 7 -7 12 0 19 5 17 9 -6 10 -6 10 -24 -2z"/>
<path d="M5319 2388 c-5 -18 -6 -38 -1 -34 7 8 12 36 6 36 -2 0 -4 -1 -5 -2z"/>
<path d="M2827 2339 c7 -7 15 -10 18 -7 3 3 -2 9 -12 12 -14 6 -15 5 -6 -5z"/>
<path d="M5309 2323 c-13 -16 -12 -17 4 -4 16 13 21 21 13 21 -2 0 -10 -8 -17
-17z"/>
<path d="M5353 2285 c0 -8 4 -12 9 -9 5 3 6 10 3 15 -9 13 -12 11 -12 -6z"/>
<path d="M2820 2286 c0 -2 8 -10 18 -17 15 -13 16 -12 3 4 -13 16 -21 21 -21
13z"/>
<path d="M6120 2280 c-9 -6 -10 -10 -3 -10 6 0 15 5 18 10 8 12 4 12 -15 0z"/>
<path d="M5255 2260 c3 -5 8 -10 11 -10 2 0 4 5 4 10 0 6 -5 10 -11 10 -5 0
-7 -4 -4 -10z"/>
<path d="M6525 2000 c-3 -6 1 -7 9 -4 18 7 21 14 7 14 -6 0 -13 -4 -16 -10z"/>
<path d="M3135 1979 c-3 -4 2 -6 10 -5 21 3 28 13 10 13 -9 0 -18 -4 -20 -8z"/>
<path d="M6533 1949 c-2 -23 3 -25 10 -4 4 8 3 16 -1 19 -4 3 -9 -4 -9 -15z"/>
<path d="M3130 1900 c0 -5 5 -10 11 -10 5 0 7 5 4 10 -3 6 -8 10 -11 10 -2 0
-4 -4 -4 -10z"/>
<path d="M6470 1895 c5 -7 6 -16 2 -21 -4 -5 -3 -5 2 -1 15 12 15 34 0 34 -9
0 -11 -4 -4 -12z"/>
<path d="M1697 1893 c-10 -9 -9 -23 1 -23 5 0 9 7 9 15 0 17 -1 18 -10 8z"/>
<path d="M4990 1877 c0 -2 6 -10 14 -16 11 -9 16 -9 22 1 4 7 4 10 -1 6 -4 -4
-14 -3 -22 3 -7 6 -13 9 -13 6z"/>
<path d="M5089 1843 c-13 -16 -12 -17 4 -4 16 13 21 21 13 21 -2 0 -10 -8 -17
-17z"/>
<path d="M5120 1851 c0 -6 4 -13 10 -16 6 -3 7 1 4 9 -7 18 -14 21 -14 7z"/>
<path d="M6421 1844 c0 -11 3 -14 6 -6 3 7 2 16 -1 19 -3 4 -6 -2 -5 -13z"/>
<path d="M1675 1840 c-3 -5 -1 -10 4 -10 6 0 11 5 11 10 0 6 -2 10 -4 10 -3 0
-8 -4 -11 -10z"/>
<path d="M3133 1811 c0 -11 5 -18 9 -15 4 3 5 11 1 19 -7 21 -12 19 -10 -4z"/>
<path d="M5110 1820 c0 -5 5 -10 11 -10 5 0 7 5 4 10 -3 6 -8 10 -11 10 -2 0
-4 -4 -4 -10z"/>
<path d="M3011 1811 c-8 -5 -9 -11 -3 -15 5 -3 12 1 16 9 6 17 6 18 -13 6z"/>
<path d="M1630 1806 c0 -2 7 -7 16 -10 8 -3 12 -2 9 4 -6 10 -25 14 -25 6z"/>
<path d="M6430 1800 c0 -4 7 -7 15 -6 23 3 26 12 5 13 -11 1 -20 -2 -20 -7z"/>
<path d="M1749 1783 c-13 -16 -12 -17 4 -4 9 7 17 15 17 17 0 8 -8 3 -21 -13z"/>
<path d="M6402 1778 c-15 -15 -15 -28 0 -28 6 0 8 3 5 7 -4 3 -2 12 4 20 14
16 7 17 -9 1z"/>
<path d="M5071 1767 c-8 -10 -7 -14 2 -14 8 0 14 6 14 14 0 7 -1 13 -2 13 -2
0 -8 -6 -14 -13z"/>
<path d="M6439 1753 l-24 -28 28 24 c15 14 27 26 27 28 0 8 -8 1 -31 -24z"/>
<path d="M3033 1755 c0 -8 4 -12 9 -9 4 3 8 9 8 15 0 5 -4 9 -8 9 -5 0 -9 -7
-9 -15z"/>
<path d="M3000 1740 c-9 -6 -10 -10 -3 -10 6 0 15 5 18 10 8 12 4 12 -15 0z"/>
<path d="M5117 1732 c-15 -16 -15 -19 -2 -19 8 0 13 3 10 5 -3 3 0 11 6 19 17
20 5 16 -14 -5z"/>
<path d="M5153 1726 c-2 -19 -1 -19 8 -3 6 9 16 14 22 11 7 -4 8 -3 4 1 -15
17 -33 12 -34 -9z"/>
<path d="M1795 1730 c-4 -6 -10 -8 -15 -5 -5 3 -11 1 -14 -4 -8 -13 22 -7 36
7 7 7 9 12 6 12 -4 0 -10 -5 -13 -10z"/>
<path d="M6360 1731 c0 -5 -3 -16 -6 -25 -3 -9 -2 -16 3 -16 5 0 10 11 11 25
1 14 0 25 -3 25 -3 0 -5 -4 -5 -9z"/>
<path d="M3030 1726 c0 -2 7 -7 16 -10 8 -3 12 -2 9 4 -6 10 -25 14 -25 6z"/>
<path d="M3110 1720 c0 -5 5 -10 11 -10 5 0 7 5 4 10 -3 6 -8 10 -11 10 -2 0
-4 -4 -4 -10z"/>
<path d="M1774 1689 c-3 -6 -2 -15 3 -20 5 -5 9 -1 9 11 0 23 -2 24 -12 9z"/>
<path d="M5178 1688 c8 -10 20 -14 29 -11 11 4 14 2 9 -5 -5 -8 -2 -10 10 -5
15 6 15 7 -1 15 -9 6 -19 7 -22 4 -4 -3 -13 0 -22 7 -14 10 -14 10 -3 -5z"/>
<path d="M2954 1676 c1 -8 5 -18 8 -22 4 -3 5 1 4 10 -1 8 -5 18 -8 22 -4 3
-5 -1 -4 -10z"/>
<path d="M2991 1667 c-8 -10 -7 -14 2 -14 8 0 14 6 14 14 0 7 -1 13 -2 13 -2
0 -8 -6 -14 -13z"/>
<path d="M6410 1659 c0 -5 5 -7 10 -4 6 3 10 8 10 11 0 2 -4 4 -10 4 -5 0 -10
-5 -10 -11z"/>
<path d="M5195 1640 c2 -27 10 -33 12 -10 1 11 -2 22 -6 24 -4 3 -7 -4 -6 -14z"/>
<path d="M5238 1653 c7 -3 16 -2 19 1 4 3 -2 6 -13 5 -11 0 -14 -3 -6 -6z"/>
<path d="M2925 1640 c-3 -6 1 -7 9 -4 18 7 21 14 7 14 -6 0 -13 -4 -16 -10z"/>
<path d="M1815 1629 c-4 -6 -5 -12 -2 -15 2 -3 7 2 10 11 7 17 1 20 -8 4z"/>
<path d="M5227 1623 c-3 -5 5 -8 18 -8 13 0 21 3 18 8 -2 4 -10 7 -18 7 -8 0
-16 -3 -18 -7z"/>
<path d="M6310 1620 c0 -5 5 -10 10 -10 6 0 10 5 10 10 0 6 -4 10 -10 10 -5 0
-10 -4 -10 -10z"/>
<path d="M6410 1619 c0 -5 5 -7 10 -4 6 3 10 8 10 11 0 2 -4 4 -10 4 -5 0 -10
-5 -10 -11z"/>
<path d="M1653 1607 c0 -8 6 -14 14 -14 9 0 10 4 2 14 -6 7 -12 13 -14 13 -1
0 -2 -6 -2 -13z"/>
<path d="M2901 1604 c0 -11 3 -14 6 -6 3 7 2 16 -1 19 -3 4 -6 -2 -5 -13z"/>
<path d="M1873 1593 c0 -9 4 -10 14 -2 7 6 13 12 13 14 0 1 -6 2 -13 2 -8 0
-14 -6 -14 -14z"/>
<path d="M2946 1598 c3 -5 10 -6 15 -3 13 9 11 12 -6 12 -8 0 -12 -4 -9 -9z"/>
<path d="M5176 1602 c-3 -5 1 -9 9 -9 8 0 12 4 9 9 -3 4 -7 8 -9 8 -2 0 -6 -4
-9 -8z"/>
<path d="M5233 1592 c-8 -14 -8 -19 1 -19 7 0 13 9 13 19 1 10 1 18 0 18 -1 0
-7 -8 -14 -18z"/>
<path d="M6309 1583 c-13 -16 -12 -17 4 -4 16 13 21 21 13 21 -2 0 -10 -8 -17
-17z"/>
<path d="M1775 1580 c-3 -5 -1 -10 4 -10 6 0 11 5 11 10 0 6 -2 10 -4 10 -3 0
-8 -4 -11 -10z"/>
<path d="M1834 1574 c1 -8 4 -15 7 -16 2 -2 3 -1 2 1 -2 2 2 9 7 16 7 8 5 12
-4 12 -8 0 -13 -6 -12 -13z"/>
<path d="M2916 1573 c-6 -14 -5 -15 5 -6 7 7 10 15 7 18 -3 3 -9 -2 -12 -12z"/>
<path d="M5276 1573 c-6 -14 -5 -15 5 -6 7 7 10 15 7 18 -3 3 -9 -2 -12 -12z"/>
<path d="M6335 1569 c-4 -6 -5 -12 -2 -15 2 -3 7 2 10 11 7 17 1 20 -8 4z"/>
<path d="M5297 1556 c-4 -10 -1 -13 8 -9 8 3 12 9 9 14 -7 12 -11 11 -17 -5z"/>
<path d="M1895 1550 c-4 -6 1 -7 11 -3 13 5 15 3 9 -7 -5 -9 -4 -11 4 -6 6 4
9 12 6 17 -8 12 -22 12 -30 -1z"/>
<path d="M2914 1533 c16 -20 36 -23 36 -6 0 4 -3 3 -7 0 -3 -4 -16 1 -27 10
-21 18 -21 18 -2 -4z"/>
<path d="M6270 1530 c-14 -10 -21 -22 -17 -26 4 -4 7 -2 7 5 0 7 5 9 10 6 6
-4 8 -10 6 -14 -3 -4 1 -8 9 -8 11 0 12 4 4 14 -9 9 -8 17 1 28 17 20 10 19
-20 -5z"/>
<path d="M1855 1530 c-4 -6 -11 -8 -16 -5 -5 4 -9 1 -9 -4 0 -16 16 -13 30 4
7 8 10 15 7 15 -3 0 -9 -5 -12 -10z"/>
<path d="M6351 1527 c-8 -10 -7 -14 2 -14 8 0 14 6 14 14 0 7 -1 13 -2 13 -2
0 -8 -6 -14 -13z"/>
<path d="M5270 1520 c0 -5 5 -10 10 -10 6 0 10 5 10 10 0 6 -4 10 -10 10 -5 0
-10 -4 -10 -10z"/>
<path d="M1916 1493 c-6 -14 -5 -15 5 -6 7 7 10 15 7 18 -3 3 -9 -2 -12 -12z"/>
<path d="M2914 1485 c0 -13 3 -22 7 -19 8 4 6 30 -2 38 -3 3 -5 -5 -5 -19z"/>
<path d="M6396 1487 c3 -10 9 -15 12 -12 3 3 0 11 -7 18 -10 9 -11 8 -5 -6z"/>
<path d="M2840 1475 c-7 -8 -17 -12 -23 -8 -6 4 -7 1 -3 -6 6 -9 13 -8 29 6
12 10 24 19 26 20 2 2 0 3 -6 3 -6 0 -16 -7 -23 -15z"/>
<path d="M1955 1470 c-3 -5 -1 -10 4 -10 6 0 11 5 11 10 0 6 -2 10 -4 10 -3 0
-8 -4 -11 -10z"/>
<path d="M5216 1453 c-6 -14 -5 -15 5 -6 7 7 10 15 7 18 -3 3 -9 -2 -12 -12z"/>
<path d="M6214 1462 c3 -5 1 -12 -6 -14 -8 -3 -9 -6 -1 -11 6 -4 13 0 17 8 3
8 0 17 -6 21 -6 4 -8 3 -4 -4z"/>
<path d="M6280 1460 c-9 -6 -10 -10 -3 -10 6 0 15 5 18 10 8 12 4 12 -15 0z"/>
<path d="M5296 1447 c3 -10 9 -15 12 -12 3 3 0 11 -7 18 -10 9 -11 8 -5 -6z"/>
<path d="M1920 1440 c-12 -7 -10 -9 8 -7 12 0 22 5 22 9 0 11 -12 10 -30 -2z"/>
<path d="M1970 1446 c0 -2 7 -7 16 -10 8 -3 12 -2 9 4 -6 10 -25 14 -25 6z"/>
<path d="M5337 1437 c-3 -7 3 -13 14 -13 13 0 15 3 7 13 -6 7 -12 13 -13 13
-2 0 -5 -6 -8 -13z"/>
<path d="M6236 1441 c-3 -5 2 -15 12 -22 15 -12 16 -12 5 2 -7 9 -10 19 -6 22
3 4 4 7 0 7 -3 0 -8 -4 -11 -9z"/>
<path d="M1846 1418 c3 -5 10 -6 15 -3 13 9 11 12 -6 12 -8 0 -12 -4 -9 -9z"/>
<path d="M1956 1421 c-3 -5 1 -14 8 -20 10 -9 16 -9 21 -1 4 6 3 10 -2 9 -20
-3 -27 2 -13 11 9 6 10 10 3 10 -6 0 -14 -4 -17 -9z"/>
<path d="M2880 1420 c-12 -7 -10 -9 7 -7 12 0 19 5 17 9 -6 10 -6 10 -24 -2z"/>
<path d="M5233 1415 c0 -8 4 -12 9 -9 5 3 6 10 3 15 -9 13 -12 11 -12 -6z"/>
<path d="M1925 1400 c10 -11 20 -20 23 -20 3 0 -3 9 -13 20 -10 11 -20 20 -23
20 -3 0 3 -9 13 -20z"/>
<path d="M2813 1403 c1 -17 4 -19 14 -11 15 12 18 22 4 14 -5 -4 -11 0 -14 6
-3 7 -4 3 -4 -9z"/>
<path d="M5295 1409 c-4 -6 -5 -12 -2 -15 2 -3 7 2 10 11 7 17 1 20 -8 4z"/>
<path d="M5319 1393 c-13 -16 -12 -17 4 -4 16 13 21 21 13 21 -2 0 -10 -8 -17
-17z"/>
<path d="M6193 1398 c3 -9 1 -19 -6 -21 -7 -3 -2 -4 10 -4 18 1 20 4 10 17
-19 25 -20 26 -14 8z"/>
<path d="M2840 1380 c-9 -6 -10 -10 -3 -10 6 0 15 5 18 10 8 12 4 12 -15 0z"/>
<path d="M2875 1380 c-3 -5 -1 -10 4 -10 6 0 11 5 11 10 0 6 -2 10 -4 10 -3 0
-8 -4 -11 -10z"/>
<path d="M5256 1375 c-9 -26 -7 -32 5 -12 6 10 9 21 6 23 -2 3 -7 -2 -11 -11z"/>
<path d="M1974 1366 c1 -8 5 -18 8 -22 4 -3 5 1 4 10 -1 8 -5 18 -8 22 -4 3
-5 -1 -4 -10z"/>
<path d="M5315 1360 c-3 -5 -1 -10 4 -10 6 0 11 5 11 10 0 6 -2 10 -4 10 -3 0
-8 -4 -11 -10z"/>
<path d="M5380 1355 c-7 -9 -11 -17 -9 -20 3 -2 10 5 17 15 14 24 10 26 -8 5z"/>
<path d="M2833 1345 c0 -8 4 -12 9 -9 5 3 6 10 3 15 -9 13 -12 11 -12 -6z"/>
<path d="M5396 1333 c-6 -14 -5 -15 5 -6 7 7 10 15 7 18 -3 3 -9 -2 -12 -12z"/>
<path d="M2850 1320 c0 -5 5 -10 11 -10 5 0 7 5 4 10 -3 6 -8 10 -11 10 -2 0
-4 -4 -4 -10z"/>
<path d="M6140 1320 c-9 -6 -10 -10 -3 -10 6 0 15 5 18 10 8 12 4 12 -15 0z"/>
<path d="M1935 1300 c-3 -5 -1 -10 4 -10 6 0 11 5 11 10 0 6 -2 10 -4 10 -3 0
-8 -4 -11 -10z"/>
<path d="M5335 1300 c3 -5 8 -10 11 -10 2 0 4 5 4 10 0 6 -5 10 -11 10 -5 0
-7 -4 -4 -10z"/>
<path d="M2020 1286 c7 -7 13 -7 20 0 6 6 3 10 -10 10 -13 0 -16 -4 -10 -10z"/>
<path d="M6199 1298 c-5 -18 -6 -38 -1 -34 7 8 12 36 6 36 -2 0 -4 -1 -5 -2z"/>
<path d="M2061 1274 c0 -11 3 -14 6 -6 3 7 2 16 -1 19 -3 4 -6 -2 -5 -13z"/>
<path d="M5410 1281 c0 -6 4 -13 10 -16 6 -3 7 1 4 9 -7 18 -14 21 -14 7z"/>
<path d="M6136 1267 c3 -10 9 -15 12 -12 3 3 0 11 -7 18 -10 9 -11 8 -5 -6z"/>
<path d="M6096 1262 c-2 -4 -1 -14 3 -20 6 -10 11 -9 21 3 11 13 10 14 -5 9
-13 -5 -16 -4 -11 4 4 7 5 12 2 12 -3 0 -7 -4 -10 -8z"/>
<path d="M5390 1257 c0 -2 6 -10 14 -16 11 -9 16 -9 22 1 4 7 4 10 -1 6 -4 -4
-14 -3 -22 3 -7 6 -13 9 -13 6z"/>
<path d="M2046 1238 c3 -5 10 -6 15 -3 13 9 11 12 -6 12 -8 0 -12 -4 -9 -9z"/>
<path d="M6070 1241 c0 -6 4 -13 10 -16 6 -3 7 1 4 9 -7 18 -14 21 -14 7z"/>
<path d="M2027 1219 c7 -7 15 -10 18 -7 3 3 -2 9 -12 12 -14 6 -15 5 -6 -5z"/>
<path d="M5477 1213 c6 -15 4 -16 -8 -6 -13 10 -16 10 -16 -1 0 -16 29 -15 34
1 2 6 -1 14 -6 18 -7 4 -8 -1 -4 -12z"/>
<path d="M2678 1213 c7 -3 16 -2 19 1 4 3 -2 6 -13 5 -11 0 -14 -3 -6 -6z"/>
<path d="M5415 1209 c-4 -6 -5 -12 -2 -15 2 -3 7 2 10 11 7 17 1 20 -8 4z"/>
<path d="M2070 1199 c0 -5 5 -7 10 -4 6 3 10 8 10 11 0 2 -4 4 -10 4 -5 0 -10
-5 -10 -11z"/>
<path d="M6150 1206 c0 -2 7 -7 16 -10 8 -3 12 -2 9 4 -6 10 -25 14 -25 6z"/>
<path d="M2095 1190 c-3 -6 1 -7 9 -4 18 7 21 14 7 14 -6 0 -13 -4 -16 -10z"/>
<path d="M5516 1175 c5 -11 2 -14 -10 -9 -9 3 -16 2 -16 -4 0 -13 33 -8 37 5
2 6 -1 14 -6 18 -7 3 -8 0 -5 -10z"/>
<path d="M6070 1181 c0 -6 4 -12 8 -15 5 -3 9 1 9 9 0 8 -4 15 -9 15 -4 0 -8
-4 -8 -9z"/>
<path d="M2075 1160 c2 -27 10 -33 12 -10 1 11 -2 22 -6 24 -4 3 -7 -4 -6 -14z"/>
<path d="M2120 1155 c-19 -22 -8 -25 13 -3 9 10 13 18 8 18 -5 0 -14 -7 -21
-15z"/>
<path d="M2655 1160 c3 -5 8 -10 11 -10 2 0 4 5 4 10 0 6 -5 10 -11 10 -5 0
-7 -4 -4 -10z"/>
<path d="M2793 1155 c0 -8 4 -12 9 -9 5 3 6 10 3 15 -9 13 -12 11 -12 -6z"/>
<path d="M2639 1148 c0 -2 -2 -13 -3 -25 -3 -23 19 -22 28 2 3 10 0 12 -11 8
-11 -4 -14 -2 -9 5 4 7 5 12 2 12 -3 0 -6 -1 -7 -2z"/>
<path d="M5525 1140 c-3 -6 1 -7 9 -4 18 7 21 14 7 14 -6 0 -13 -4 -16 -10z"/>
<path d="M5496 1127 c3 -10 9 -15 12 -12 3 3 0 11 -7 18 -10 9 -11 8 -5 -6z"/>
<path d="M6044 1124 c9 -6 14 -14 11 -17 -3 -4 -2 -5 2 -2 15 12 10 31 -9 31
-17 0 -17 -2 -4 -12z"/>
<path d="M5556 1117 c3 -10 9 -15 12 -12 3 3 0 11 -7 18 -10 9 -11 8 -5 -6z"/>
<path d="M6000 1115 c-7 -9 -11 -17 -9 -20 3 -2 10 5 17 15 14 24 10 26 -8 5z"/>
<path d="M2649 1083 c-13 -16 -12 -17 4 -4 16 13 21 21 13 21 -2 0 -10 -8 -17
-17z"/>
<path d="M5486 1081 c-14 -15 -15 -21 -4 -27 7 -4 10 -3 5 1 -4 5 0 17 10 27
9 10 14 18 11 18 -3 0 -13 -9 -22 -19z"/>
<path d="M6013 1083 c1 -17 4 -19 14 -11 15 12 18 22 4 14 -5 -4 -11 0 -14 6
-3 7 -4 3 -4 -9z"/>
<path d="M2100 1086 c0 -2 8 -10 18 -17 15 -13 16 -12 3 4 -13 16 -21 21 -21
13z"/>
<path d="M2164 1075 c-4 -8 -11 -12 -18 -8 -6 3 -7 2 -3 -2 14 -16 36 -14 30
3 -5 11 -3 13 7 7 9 -5 11 -4 6 3 -10 16 -15 15 -22 -3z"/>
<path d="M2595 1080 c3 -5 8 -10 11 -10 2 0 4 5 4 10 0 6 -5 10 -11 10 -5 0
-7 -4 -4 -10z"/>
<path d="M2693 1065 c0 -8 4 -12 9 -9 5 3 6 10 3 15 -9 13 -12 11 -12 -6z"/>
<path d="M2576 1062 c-3 -5 1 -9 9 -9 8 0 12 4 9 9 -3 4 -7 8 -9 8 -2 0 -6 -4
-9 -8z"/>
<path d="M2627 1059 c7 -7 15 -10 18 -7 3 3 -2 9 -12 12 -14 6 -15 5 -6 -5z"/>
<path d="M5565 1060 c-3 -5 -1 -18 5 -27 9 -15 10 -14 4 6 -4 17 -3 21 6 16 9
-5 11 -4 6 3 -9 15 -13 15 -21 2z"/>
<path d="M6040 1060 c-9 -6 -10 -10 -3 -10 6 0 15 5 18 10 8 12 4 12 -15 0z"/>
<path d="M5536 1047 c3 -10 9 -15 12 -12 3 3 0 11 -7 18 -10 9 -11 8 -5 -6z"/>
<path d="M2180 1040 c-8 -5 -10 -10 -5 -10 6 0 17 5 25 10 8 5 11 10 5 10 -5
0 -17 -5 -25 -10z"/>
<path d="M2593 1027 c0 -8 6 -14 14 -14 9 0 10 4 2 14 -6 7 -12 13 -14 13 -1
0 -2 -6 -2 -13z"/>
<path d="M2633 1025 c0 -8 4 -12 9 -9 5 3 6 10 3 15 -9 13 -12 11 -12 -6z"/>
<path d="M5435 1031 c-3 -5 -2 -12 3 -15 5 -3 9 1 9 9 0 17 -3 19 -12 6z"/>
<path d="M6033 1025 c0 -8 4 -12 9 -9 5 3 6 10 3 15 -9 13 -12 11 -12 -6z"/>
<path d="M2096 1022 c-3 -5 1 -9 9 -9 8 0 12 4 9 9 -3 4 -7 8 -9 8 -2 0 -6 -4
-9 -8z"/>
<path d="M5599 1015 c-1 -3 -2 -8 -3 -12 -1 -5 -4 -13 -8 -19 -4 -6 -1 -11 7
-11 8 0 11 5 8 10 -4 7 1 8 13 4 18 -7 18 -6 2 6 -10 8 -15 17 -11 20 3 4 3 7
0 7 -4 0 -8 -2 -8 -5z"/>
<path d="M2550 1000 c0 -5 5 -10 10 -10 6 0 10 5 10 10 0 6 -4 10 -10 10 -5 0
-10 -4 -10 -10z"/>
<path d="M5561 996 c-9 -11 -9 -16 1 -22 7 -4 10 -4 6 1 -4 4 -3 14 3 22 6 7
9 13 6 13 -2 0 -10 -6 -16 -14z"/>
<path d="M6053 989 c-2 -23 3 -25 10 -4 4 8 3 16 -1 19 -4 3 -9 -4 -9 -15z"/>
<path d="M2589 983 c-13 -16 -12 -17 4 -4 16 13 21 21 13 21 -2 0 -10 -8 -17
-17z"/>
<path d="M2160 980 c-9 -6 -10 -10 -3 -10 6 0 15 5 18 10 8 12 4 12 -15 0z"/>
<path d="M2239 978 c-6 -21 -5 -37 2 -32 5 3 7 9 4 14 -3 4 1 11 7 13 10 4 10
6 1 6 -7 1 -13 0 -14 -1z"/>
<path d="M2185 959 c-3 -4 2 -6 10 -5 21 3 28 13 10 13 -9 0 -18 -4 -20 -8z"/>
<path d="M2610 966 c0 -2 7 -7 16 -10 8 -3 12 -2 9 4 -6 10 -25 14 -25 6z"/>
<path d="M2114 942 c4 -3 14 -7 22 -8 9 -1 13 0 10 4 -4 3 -14 7 -22 8 -9 1
-13 0 -10 -4z"/>
<path d="M5916 939 c2 -4 -2 -10 -8 -12 -8 -4 -7 -6 3 -6 9 -1 19 5 22 12 3 8
-1 14 -9 14 -7 0 -11 -4 -8 -8z"/>
<path d="M5953 943 c4 -3 1 -13 -6 -22 -11 -14 -10 -14 5 -2 16 12 16 31 1 31
-4 0 -3 -3 0 -7z"/>
<path d="M5986 938 c3 -5 10 -6 15 -3 13 9 11 12 -6 12 -8 0 -12 -4 -9 -9z"/>
<path d="M2273 925 c0 -8 4 -15 9 -15 4 0 8 4 8 9 0 6 -4 12 -8 15 -5 3 -9 -1
-9 -9z"/>
<path d="M5633 925 c0 -8 4 -12 9 -9 5 3 6 10 3 15 -9 13 -12 11 -12 -6z"/>
<path d="M2510 916 c0 -2 8 -10 18 -17 15 -13 16 -12 3 4 -13 16 -21 21 -21
13z"/>
<path d="M2554 896 c1 -14 4 -28 7 -31 3 -3 5 6 5 19 -1 14 -4 28 -7 31 -3 3
-5 -6 -5 -19z"/>
<path d="M2175 900 c3 -5 8 -10 11 -10 2 0 4 5 4 10 0 6 -5 10 -11 10 -5 0 -7
-4 -4 -10z"/>
<path d="M2236 902 c-3 -5 1 -9 9 -9 8 0 12 4 9 9 -3 4 -7 8 -9 8 -2 0 -6 -4
-9 -8z"/>
<path d="M5995 900 c3 -5 8 -10 11 -10 2 0 4 5 4 10 0 6 -5 10 -11 10 -5 0 -7
-4 -4 -10z"/>
<path d="M2509 863 c-13 -16 -12 -17 4 -4 16 13 21 21 13 21 -2 0 -10 -8 -17
-17z"/>
<path d="M2467 859 c7 -7 15 -10 18 -7 3 3 -2 9 -12 12 -14 6 -15 5 -6 -5z"/>
<path d="M5854 858 c-4 -7 -4 -10 1 -6 4 4 15 2 24 -5 14 -11 14 -10 2 6 -16
20 -18 21 -27 5z"/>
<path d="M5950 865 c0 -7 30 -13 34 -7 3 4 -4 9 -15 9 -10 1 -19 0 -19 -2z"/>
<path d="M2270 857 c0 -2 6 -10 14 -16 11 -9 16 -9 22 1 4 7 4 10 -1 6 -4 -4
-14 -3 -22 3 -7 6 -13 9 -13 6z"/>
<path d="M5665 840 c-3 -6 1 -7 9 -4 18 7 21 14 7 14 -6 0 -13 -4 -16 -10z"/>
<path d="M5610 819 c0 -5 5 -7 10 -4 6 3 10 8 10 11 0 2 -4 4 -10 4 -5 0 -10
-5 -10 -11z"/>
<path d="M5680 820 c-9 -6 -10 -10 -3 -10 6 0 15 5 18 10 8 12 4 12 -15 0z"/>
<path d="M5828 823 c7 -3 16 -2 19 1 4 3 -2 6 -13 5 -11 0 -14 -3 -6 -6z"/>
<path d="M5933 815 c0 -8 4 -12 9 -9 5 3 6 10 3 15 -9 13 -12 11 -12 -6z"/>
<path d="M5510 799 c0 -5 5 -7 10 -4 6 3 10 8 10 11 0 2 -4 4 -10 4 -5 0 -10
-5 -10 -11z"/>
<path d="M5846 798 c3 -5 10 -6 15 -3 13 9 11 12 -6 12 -8 0 -12 -4 -9 -9z"/>
<path d="M2515 781 c-3 -5 -2 -12 3 -15 5 -3 9 1 9 9 0 17 -3 19 -12 6z"/>
<path d="M2415 751 c-3 -5 -2 -12 3 -15 5 -3 9 1 9 9 0 17 -3 19 -12 6z"/>
<path d="M2346 742 c-3 -5 1 -9 9 -9 8 0 12 4 9 9 -3 4 -7 8 -9 8 -2 0 -6 -4
-9 -8z"/>
<path d="M2230 680 c0 -5 5 -10 11 -10 5 0 7 5 4 10 -3 6 -8 10 -11 10 -2 0
-4 -4 -4 -10z"/>
</g>
</svg>
