<?xml version="1.0" standalone="no"?>
<!DOCTYPE svg PUBLIC "-//W3C//DTD SVG 20010904//EN"
 "http://www.w3.org/TR/2001/REC-SVG-20010904/DTD/svg10.dtd">
<svg version="1.0" xmlns="http://www.w3.org/2000/svg"
 width="128.000000pt" height="128.000000pt" viewBox="0 0 128.000000 128.000000"
 preserveAspectRatio="xMidYMid meet">
<metadata>
Created by potrace 1.11, written by Peter Selinger 2001-2013
</metadata>
<g transform="translate(0.000000,128.000000) scale(0.100000,-0.100000)"
fill="#000000" stroke="none">
<path d="M575 1268 c-265 -30 -474 -211 -546 -473 -18 -67 -21 -97 -16 -185 9
-169 65 -298 183 -417 57 -57 90 -80 165 -116 52 -25 110 -48 129 -51 19 -3
46 -8 60 -11 39 -9 150 -6 205 4 160 31 307 125 399 255 178 251 149 595 -68
811 -137 136 -326 203 -511 183z m132 -343 c97 -13 120 -17 198 -42 95 -30
172 -70 187 -96 14 -27 2 -62 -26 -75 -20 -9 -34 -6 -87 19 -69 33 -176 65
-254 77 -88 13 -325 7 -400 -10 -78 -18 -107 -10 -118 32 -13 49 63 84 208 97
33 3 61 6 62 7 5 5 183 -2 230 -9z m38 -230 c91 -21 191 -61 233 -92 40 -30
44 -68 7 -85 -21 -9 -33 -6 -82 20 -102 54 -230 83 -368 83 -49 0 -99 -2 -110
-5 -125 -26 -145 -28 -160 -16 -8 7 -15 23 -15 36 0 38 32 52 175 77 48 9 256
-3 320 -18z m-89 -190 c86 -11 219 -59 257 -93 22 -19 22 -48 1 -60 -12 -7
-37 0 -88 23 -39 19 -106 40 -148 48 -84 16 -236 15 -308 -2 -64 -15 -78 -14
-90 9 -18 34 16 56 111 69 130 18 167 19 265 6z"/>
</g>
</svg>
